<?xml version="1.0" encoding="UTF-8" standalone="no"?>
<svg
   xmlns:dc="http://purl.org/dc/elements/1.1/"
   xmlns:cc="http://creativecommons.org/ns#"
   xmlns:rdf="http://www.w3.org/1999/02/22-rdf-syntax-ns#"
   xmlns:svg="http://www.w3.org/2000/svg"
   xmlns="http://www.w3.org/2000/svg"
   xmlns:sodipodi="http://sodipodi.sourceforge.net/DTD/sodipodi-0.dtd"
   xmlns:inkscape="http://www.inkscape.org/namespaces/inkscape"
   enable-background="new 0 0 300 300"
   viewBox="-52275.001 0 0 51"
   xml:space="preserve"
   id="svg2"
   version="1.1"
   inkscape:version="0.91 r13725"
   width="1025"
   height="1025"
   sodipodi:docname="trail_running.svg"><metadata
     id="metadata24"><rdf:RDF><cc:Work
         rdf:about=""><dc:format>image/svg+xml</dc:format><dc:type
           rdf:resource="http://purl.org/dc/dcmitype/StillImage" /><dc:title /></cc:Work></rdf:RDF></metadata><defs
     id="defs22" /><sodipodi:namedview
     pagecolor="#ffffff"
     bordercolor="#666666"
     borderopacity="1"
     objecttolerance="10"
     gridtolerance="10"
     guidetolerance="10"
     inkscape:pageopacity="0"
     inkscape:pageshadow="2"
     inkscape:window-width="1366"
     inkscape:window-height="670"
     id="namedview20"
     showgrid="false"
     inkscape:zoom="0.27812865"
     inkscape:cx="145.6072"
     inkscape:cy="547.54102"
     inkscape:window-x="0"
     inkscape:window-y="28"
     inkscape:window-maximized="1"
     inkscape:current-layer="svg2"
     fit-margin-top="3"
     fit-margin-left="3"
     fit-margin-right="3"
     fit-margin-bottom="3" /><g
     id="g6405"><rect
       ry="101.1101"
       y="19.262314"
       x="16.968224"
       height="992.36493"
       width="992.36493"
       id="rect3769"
       style="fill:none;fill-opacity:1;stroke:#ff4081;stroke-width:32.63505173;stroke-miterlimit:4;stroke-dasharray:none;stroke-opacity:1" /><path
       inkscape:connector-curvature="0"
       style="fill:#3f51b5;fill-opacity:1;stroke:none;stroke-miterlimit:10"
       id="path4"
       stroke-miterlimit="10"
       d="m 361.06459,121.47879 c 33.3885,-13.35723 70.30236,-4.19771 101.88527,9.82441 35.2403,16.59565 71.24311,40.7399 85.701,78.64493 6.48624,15.46765 2.22809,33.51546 -8.91571,45.63886 -8.76716,7.50559 -21.23792,5.41169 -31.74465,4.34987 -23.84892,-5.13053 -38.45207,-26.3903 -56.98326,-40.3165 -16.06543,-14.17097 -33.16734,-29.51292 -54.9136,-33.43277 -19.39933,-3.21195 -36.25037,9.65241 -48.68482,22.99641 -18.71275,23.13203 -30.53324,50.93148 -39.74933,78.99886 -5.98781,24.47833 -18.72924,47.8353 -17.19433,73.66986 -1.82209,-23.82998 -8.60541,-47.02485 -9.25569,-70.97063 -1.21473,-30.87577 2.69353,-61.92357 10.4308,-91.77721 14.19053,-31.99384 36.12165,-63.6602 69.42432,-77.62609 z" /><path
       inkscape:connector-curvature="0"
       style="fill:#3f51b5;fill-opacity:1;stroke:none"
       id="path6"
       d="m 361.06459,121.47879 c 33.3885,-13.35723 70.30236,-4.19771 101.88527,9.82441 35.2403,16.59565 71.24311,40.7399 85.701,78.64493 6.48624,15.46765 2.22809,33.51546 -8.91571,45.63886 -8.76716,7.50559 -21.23792,5.41169 -31.74465,4.34987 -23.84892,-5.13053 -38.45207,-26.3903 -56.98326,-40.3165 -16.06543,-14.17097 -33.16734,-29.51292 -54.9136,-33.43277 -19.39933,-3.21195 -36.25037,9.65241 -48.68482,22.99641 -18.71275,23.13203 -30.53324,50.93148 -39.74933,78.99886 -5.98781,24.47833 -18.72924,47.8353 -17.19433,73.66986 -1.82209,-23.82998 -8.60541,-47.02485 -9.25569,-70.97063 -1.21473,-30.87577 2.69353,-61.92357 10.4308,-91.77721 14.19053,-31.99384 36.12165,-63.6602 69.42432,-77.62609 z" /><path
       inkscape:connector-curvature="0"
       style="fill:#3f51b5;fill-opacity:1;stroke:none;stroke-miterlimit:10"
       id="path8"
       stroke-miterlimit="10"
       d="m 665.48585,141.94136 c 24.17572,-2.81171 49.58267,6.69184 65.80654,24.93151 11.00516,13.57555 18.39585,30.6773 18.27702,48.34471 -2.13237,21.48139 -12.91968,42.70808 -30.91942,55.0531 -21.21813,15.0707 -50.22304,18.20989 -74.09838,7.7636 -35.47136,-13.50609 -56.12834,-59.26403 -37.89752,-93.82811 10.25917,-23.51243 33.91005,-38.81138 58.83176,-42.26481 z" /><path
       inkscape:connector-curvature="0"
       style="fill:#3f51b5;fill-opacity:1;stroke:none"
       id="path10"
       d="m 665.48585,141.94136 c 24.17572,-2.81171 49.58267,6.69184 65.80654,24.93151 11.00516,13.57555 18.39585,30.6773 18.27702,48.34471 -2.13237,21.48139 -12.91968,42.70808 -30.91942,55.0531 -21.21813,15.0707 -50.22304,18.20989 -74.09838,7.7636 -35.47136,-13.50609 -56.12834,-59.26403 -37.89752,-93.82811 10.25917,-23.51243 33.91005,-38.81138 58.83176,-42.26481 z" /><path
       inkscape:connector-curvature="0"
       style="fill:#3f51b5;fill-opacity:1;stroke:none;stroke-miterlimit:10"
       id="path12"
       stroke-miterlimit="10"
       d="m 917.13578,266.81063 c 1.42928,-0.0794 2.87508,-0.11577 4.33407,-0.0894 -0.60737,12.74197 2.70673,25.47401 0.60737,38.16635 -3.35701,21.8188 -12.12418,42.31114 -21.62083,62.06912 -20.86163,46.63454 -60.31056,85.14491 -108.14046,103.2688 -21.9575,7.7603 -48.00814,7.16488 -67.79366,-6.08319 -31.99884,-20.9356 -57.16481,-52.8699 -68.16999,-89.72963 -6.96817,-19.90684 -7.20914,-43.81292 4.76979,-61.85411 5.99112,-7.90585 14.08159,-16.73459 24.90522,-16.14248 11.18341,1.03537 21.1785,7.76691 27.93213,16.53942 15.90038,20.91575 19.22768,48.11978 32.33552,70.4513 10.96556,14.40252 28.69793,31.51089 48.30191,23.08572 23.62447,-10.00966 43.50572,-27.03534 62.71691,-43.73022 24.28794,-20.93229 41.19179,-48.87397 54.68584,-77.64594 2.71003,-5.77226 4.60144,-11.92492 5.13618,-18.30582 z" /><path
       inkscape:connector-curvature="0"
       style="fill:#3f51b5;fill-opacity:1;stroke:none"
       id="path14"
       d="m 917.13578,266.81063 c 1.42928,-0.0794 2.87508,-0.11577 4.33407,-0.0894 -0.60737,12.74197 2.70673,25.47401 0.60737,38.16635 -3.35701,21.8188 -12.12418,42.31114 -21.62083,62.06912 -20.86163,46.63454 -60.31056,85.14491 -108.14046,103.2688 -21.9575,7.7603 -48.00814,7.16488 -67.79366,-6.08319 -31.99884,-20.9356 -57.16481,-52.8699 -68.16999,-89.72963 -6.96817,-19.90684 -7.20914,-43.81292 4.76979,-61.85411 5.99112,-7.90585 14.08159,-16.73459 24.90522,-16.14248 11.18341,1.03537 21.1785,7.76691 27.93213,16.53942 15.90038,20.91575 19.22768,48.11978 32.33552,70.4513 10.96556,14.40252 28.69793,31.51089 48.30191,23.08572 23.62447,-10.00966 43.50572,-27.03534 62.71691,-43.73022 24.28794,-20.93229 41.19179,-48.87397 54.68584,-77.64594 2.71003,-5.77226 4.60144,-11.92492 5.13618,-18.30582 z" /><path
       inkscape:connector-curvature="0"
       style="fill:#3f51b5;fill-opacity:1;stroke:none;stroke-miterlimit:10"
       id="path16"
       stroke-miterlimit="10"
       d="m 326.93009,400.54835 c 14.05189,-11.92492 34.80459,-10.76717 51.14729,-4.80305 16.41863,6.99617 33.71528,12.40125 48.70462,22.35137 23.27459,14.94501 45.51598,31.70275 65.41374,50.95463 22.48237,18.2132 43.36049,38.53022 61.25131,61.32814 13.20356,15.56359 26.98807,33.74703 25.94829,55.3012 -9.75412,31.40503 -36.60685,54.36505 -64.54229,69.73348 -37.04918,18.87808 -78.37303,26.36713 -117.9705,37.95134 -17.12502,5.54071 -35.10167,7.55851 -52.90996,9.48039 -20.16513,1.0916 -40.4392,5.25954 -60.59113,1.68371 12.91308,-9.40431 28.54609,-13.58878 42.73992,-20.55517 40.75608,-17.63103 79.11572,-40.2371 118.82543,-60.04801 16.82133,-8.16055 33.29607,-18.56054 42.91487,-35.17602 -0.51495,-3.65191 -1.01668,-7.29389 -1.50192,-10.92594 -11.30554,-11.46844 -25.2617,-19.66538 -39.64698,-26.61193 -16.78503,13.90303 -36.13484,24.47834 -51.59621,39.99893 -42.42963,31.64982 -89.33198,56.46226 -134.51786,83.8416 -60.82879,34.25974 -118.37651,74.19912 -180.360611,106.43776 -3.611173,1.29668 -7.311471,2.30559 -11.097592,3.03 23.802716,-25.99002 51.520293,-48.10984 74.956613,-74.45712 33.82091,-35.5002 67.64183,-71.02026 102.92834,-105.07161 37.26704,-35.95999 73.4877,-72.97851 108.02492,-111.58482 -14.56683,-13.49616 -33.3753,-25.93049 -37.8018,-46.62792 -4.20863,-15.65289 -1.73296,-34.14396 9.68151,-46.23096 z" /><path
       inkscape:connector-curvature="0"
       style="fill:#3f51b5;fill-opacity:1;stroke:none"
       id="path18"
       d="m 326.93009,400.54835 c 14.05189,-11.92492 34.80459,-10.76717 51.14729,-4.80305 16.41863,6.99617 33.71528,12.40125 48.70462,22.35137 23.27459,14.94501 45.51598,31.70275 65.41374,50.95463 22.48237,18.2132 43.36049,38.53022 61.25131,61.32814 13.20356,15.56359 26.98807,33.74703 25.94829,55.3012 -9.75412,31.40503 -36.60685,54.36505 -64.54229,69.73348 -37.04918,18.87808 -78.37303,26.36713 -117.9705,37.95134 -17.12502,5.54071 -35.10167,7.55851 -52.90996,9.48039 -20.16513,1.0916 -40.4392,5.25954 -60.59113,1.68371 12.91308,-9.40431 28.54609,-13.58878 42.73992,-20.55517 40.75608,-17.63103 79.11572,-40.2371 118.82543,-60.04801 16.82133,-8.16055 33.29607,-18.56054 42.91487,-35.17602 -0.51495,-3.65191 -1.01668,-7.29389 -1.50192,-10.92594 -11.30554,-11.46844 -25.2617,-19.66538 -39.64698,-26.61193 -16.78503,13.90303 -36.13484,24.47834 -51.59621,39.99893 -42.42963,31.64982 -89.33198,56.46226 -134.51786,83.8416 -60.82879,34.25974 -118.37651,74.19912 -180.360611,106.43776 -3.611173,1.29668 -7.311471,2.30559 -11.097592,3.03 23.802716,-25.99002 51.520293,-48.10984 74.956613,-74.45712 33.82091,-35.5002 67.64183,-71.02026 102.92834,-105.07161 37.26704,-35.95999 73.4877,-72.97851 108.02492,-111.58482 -14.56683,-13.49616 -33.3753,-25.93049 -37.8018,-46.62792 -4.20863,-15.65289 -1.73296,-34.14396 9.68151,-46.23096 z" /><path
       inkscape:connector-curvature="0"
       id="path3767"
       d="m 90.997834,931.08899 10.791896,-51.23206 30.41347,-32.447 43.16752,11.95416 73.58101,5.12322 14.71618,5.97704 77.50536,-46.9627 27.4702,5.97707 12.75407,18.78507 16.67835,2.56164 33.35671,7.68477 31.39456,-50.37816 31.39456,-9.39258 4.9054,-62.33229 54.94049,-18.78514 51.99724,-58.91684 32.37563,1.70774 8.82974,11.95413 30.41344,-1.70774 32.37568,13.66189 43.16752,-8.53867 46.1108,30.73923 -39.24322,78.55584 51.99723,-30.73926 80.44859,51.23205 34.33773,101.61026 -74.56201,23.90833 -42.18649,-70.87103 -47.09182,-55.50138 27.4702,41.83949 14.71623,62.33236 -89.27827,16.22347 -63.77026,25.61606 -82.41067,-37.57018 0,-63.18625 -47.09185,83.67905 -63.77022,-4.26936 -70.63775,13.66189 -26.48921,-18.78506 -192.29164,29.0315 z"
       style="fill:#3f51b5;fill-opacity:1;stroke:#3f51b5;stroke-width:20.36494446;stroke-linecap:butt;stroke-linejoin:miter;stroke-miterlimit:4;stroke-dasharray:none;stroke-opacity:1" /></g></svg>