<?xml version="1.0" encoding="UTF-8" standalone="no"?>
<svg
   xmlns:dc="http://purl.org/dc/elements/1.1/"
   xmlns:cc="http://creativecommons.org/ns#"
   xmlns:rdf="http://www.w3.org/1999/02/22-rdf-syntax-ns#"
   xmlns:svg="http://www.w3.org/2000/svg"
   xmlns="http://www.w3.org/2000/svg"
   xmlns:sodipodi="http://sodipodi.sourceforge.net/DTD/sodipodi-0.dtd"
   xmlns:inkscape="http://www.inkscape.org/namespaces/inkscape"
   enable-background="new 0 0 300 300"
   viewBox="-52224 0 0 50.999999"
   xml:space="preserve"
   id="svg2"
   version="1.1"
   inkscape:version="0.91 r13725"
   width="1024"
   height="1024"
   sodipodi:docname="canicross.svg"><metadata
     id="metadata24"><rdf:RDF><cc:Work
         rdf:about=""><dc:format>image/svg+xml</dc:format><dc:type
           rdf:resource="http://purl.org/dc/dcmitype/StillImage" /><dc:title /></cc:Work></rdf:RDF></metadata><defs
     id="defs22" /><sodipodi:namedview
     pagecolor="#ffffff"
     bordercolor="#666666"
     borderopacity="1"
     objecttolerance="10"
     gridtolerance="10"
     guidetolerance="10"
     inkscape:pageopacity="0"
     inkscape:pageshadow="2"
     inkscape:window-width="1366"
     inkscape:window-height="670"
     id="namedview20"
     showgrid="false"
     inkscape:zoom="0.39333332"
     inkscape:cx="631.11762"
     inkscape:cy="542.51032"
     inkscape:window-x="0"
     inkscape:window-y="28"
     inkscape:window-maximized="1"
     inkscape:current-layer="svg2"
     fit-margin-top="3"
     fit-margin-left="3"
     fit-margin-right="3"
     fit-margin-bottom="3" /><g
     id="g4157"
     transform="matrix(0.9891996,0,0,0.9891996,2.5039593,1.038369)"><rect
       ry="102.2132"
       y="18.034838"
       x="12.943308"
       height="1003.1913"
       width="1003.1913"
       id="rect3769"
       style="fill:none;fill-opacity:1;stroke:#ff4081;stroke-width:33;stroke-miterlimit:4;stroke-dasharray:none;stroke-opacity:1" /><path
       style="fill:#ffffff;fill-opacity:1;stroke:none;stroke-miterlimit:10"
       id="path4"
       stroke-miterlimit="10"
       d="m 374.73685,187.66446 c 33.75276,-13.50296 71.06933,-4.2435 102.9968,9.93159 35.62476,16.77671 72.02035,41.18436 86.63597,79.50292 6.55702,15.63641 2.25241,33.88112 -9.01296,46.13677 -8.86282,7.58748 -21.46963,5.47074 -32.09099,4.39733 -24.10912,-5.1865 -38.87157,-26.67821 -57.60493,-40.75632 -16.2407,-14.32558 -33.52919,-29.83492 -55.51269,-33.79752 -19.61098,-3.247 -36.64586,9.75771 -49.21597,23.24728 -18.91689,23.38439 -30.86633,51.48713 -40.18296,79.86073 -6.05315,24.74539 -18.93358,48.35716 -17.38192,74.47358 -1.84197,-24.08997 -8.6993,-47.53789 -9.35668,-71.7449 -1.22798,-31.21263 2.72292,-62.59914 10.54461,-92.77848 14.34534,-32.34289 36.51571,-64.35473 70.18172,-78.47298 z"
       inkscape:connector-curvature="0" /><path
       style="fill:#3f51b5;fill-opacity:1;stroke:none"
       id="path6"
       d="m 374.73685,187.66446 c 33.75276,-13.50296 71.06933,-4.2435 102.9968,9.93159 35.62476,16.77671 72.02035,41.18436 86.63597,79.50292 6.55702,15.63641 2.25241,33.88112 -9.01296,46.13677 -8.86282,7.58748 -21.46963,5.47074 -32.09099,4.39733 -24.10912,-5.1865 -38.87157,-26.67821 -57.60493,-40.75632 -16.2407,-14.32558 -33.52919,-29.83492 -55.51269,-33.79752 -19.61098,-3.247 -36.64586,9.75771 -49.21597,23.24728 -18.91689,23.38439 -30.86633,51.48713 -40.18296,79.86073 -6.05315,24.74539 -18.93358,48.35716 -17.38192,74.47358 -1.84197,-24.08997 -8.6993,-47.53789 -9.35668,-71.7449 -1.22798,-31.21263 2.72292,-62.59914 10.54461,-92.77848 14.34534,-32.34289 36.51571,-64.35473 70.18172,-78.47298 z"
       inkscape:connector-curvature="0" /><path
       style="fill:#ffffff;fill-opacity:1;stroke:none;stroke-miterlimit:10"
       id="path8"
       stroke-miterlimit="10"
       d="m 682.47925,208.35027 c 24.43947,-2.84238 50.1236,6.76486 66.52447,25.20351 11.12523,13.72366 18.59656,31.01199 18.47643,48.87214 -2.15564,21.71575 -13.06063,43.17401 -31.25676,55.65371 -21.4496,15.23514 -50.77096,18.40856 -74.90676,7.8483 -35.85835,-13.65343 -56.74068,-59.91059 -38.31097,-94.85174 10.37109,-23.76895 34.27999,-39.23482 59.47359,-42.72592 z"
       inkscape:connector-curvature="0" /><path
       style="fill:#3f51b5;fill-opacity:1;stroke:none"
       id="path10"
       d="m 682.47925,208.35027 c 24.43947,-2.84238 50.1236,6.76486 66.52447,25.20351 11.12523,13.72366 18.59656,31.01199 18.47643,48.87214 -2.15564,21.71575 -13.06063,43.17401 -31.25676,55.65371 -21.4496,15.23514 -50.77096,18.40856 -74.90676,7.8483 -35.85835,-13.65343 -56.74068,-59.91059 -38.31097,-94.85174 10.37109,-23.76895 34.27999,-39.23482 59.47359,-42.72592 z"
       inkscape:connector-curvature="0" /><path
       style="fill:#ffffff;fill-opacity:1;stroke:none;stroke-miterlimit:10"
       id="path12"
       stroke-miterlimit="10"
       d="m 936.87461,334.58184 c 1.44488,-0.0802 2.90645,-0.11704 4.38135,-0.0903 -0.61398,12.88098 2.73627,25.75192 0.614,38.58274 -3.39363,22.05684 -12.25644,42.77274 -21.85671,62.74628 -21.08922,47.1433 -60.96852,86.07382 -109.32023,104.39543 -22.19707,7.84496 -48.53189,7.24304 -68.53329,-6.14956 -32.34791,-21.164 -57.78845,-53.4467 -68.91369,-90.70856 -7.04419,-20.12402 -7.28778,-44.2909 4.82183,-62.52892 6.05648,-7.99209 14.23522,-16.91715 25.17693,-16.31857 11.30541,1.04666 21.40955,7.85163 28.23685,16.71985 16.07385,21.14393 19.43745,48.64474 32.68829,71.21989 11.08519,14.55966 29.01102,31.85468 48.82888,23.33758 23.8822,-10.11886 43.98036,-27.33028 63.40113,-44.2073 24.55292,-21.16065 41.6412,-49.40717 55.28244,-78.49303 2.73961,-5.83524 4.65165,-12.05502 5.19222,-18.50554 z"
       inkscape:connector-curvature="0" /><path
       style="fill:#3f51b5;fill-opacity:1;stroke:none"
       id="path14"
       d="m 936.87461,334.58184 c 1.44488,-0.0802 2.90645,-0.11704 4.38135,-0.0903 -0.61398,12.88098 2.73627,25.75192 0.614,38.58274 -3.39363,22.05684 -12.25644,42.77274 -21.85671,62.74628 -21.08922,47.1433 -60.96852,86.07382 -109.32023,104.39543 -22.19707,7.84496 -48.53189,7.24304 -68.53329,-6.14956 -32.34791,-21.164 -57.78845,-53.4467 -68.91369,-90.70856 -7.04419,-20.12402 -7.28778,-44.2909 4.82183,-62.52892 6.05648,-7.99209 14.23522,-16.91715 25.17693,-16.31857 11.30541,1.04666 21.40955,7.85163 28.23685,16.71985 16.07385,21.14393 19.43745,48.64474 32.68829,71.21989 11.08519,14.55966 29.01102,31.85468 48.82888,23.33758 23.8822,-10.11886 43.98036,-27.33028 63.40113,-44.2073 24.55292,-21.16065 41.6412,-49.40717 55.28244,-78.49303 2.73961,-5.83524 4.65165,-12.05502 5.19222,-18.50554 z"
       inkscape:connector-curvature="0" /><ellipse
       transform="matrix(0.79802405,0.6026256,-0.60100087,0.79924837,0,0)"
       id="path3780"
       style="fill:none;stroke:#3f51b5;stroke-width:16.7021904;stroke-miterlimit:4;stroke-dasharray:none;stroke-opacity:1"
       cx="653.20715"
       cy="62.683918"
       rx="90.207977"
       ry="16.990232" /><path
       style="fill:#ffffff;fill-opacity:1;stroke:none;stroke-miterlimit:10"
       id="path16"
       stroke-miterlimit="10"
       d="m 340.22995,469.7786 c 14.20519,-12.05502 35.18429,-10.88463 51.70528,-4.85545 16.59776,7.0725 34.08312,12.53654 49.23599,22.59521 23.52849,15.10806 46.01254,32.04862 66.12738,51.51054 22.72763,18.4119 43.83353,38.95057 61.91954,61.99722 13.34761,15.73338 27.28251,34.11519 26.23138,55.90451 -9.86054,31.74766 -37.00623,54.95817 -65.24643,70.49425 -37.45338,19.08405 -79.22806,26.6548 -119.25753,38.36539 -17.31184,5.60115 -35.48461,7.64097 -53.48719,9.58382 -20.38513,1.10351 -40.88038,5.31692 -61.25216,1.70209 13.05396,-9.50692 28.85752,-13.73704 43.2062,-20.77945 41.20072,-17.82336 79.97885,-40.67606 120.12178,-60.70311 17.00484,-8.24957 33.65932,-18.76302 43.38306,-35.55978 -0.52057,-3.69175 -1.02778,-7.37346 -1.51829,-11.04514 -11.4289,-11.59355 -25.53731,-19.87991 -40.07953,-26.90225 -16.96814,14.05471 -36.52906,24.74539 -52.15911,40.4353 -42.89253,31.99512 -90.30656,57.07824 -135.98541,84.75629 -61.49242,34.63351 -119.66796,75.00862 -182.328298,107.59897 -3.65057,1.31083 -7.391238,2.33074 -11.218664,3.06307 24.062402,-26.27358 52.082362,-48.63472 75.774362,-75.26945 34.18989,-35.88749 68.37979,-71.79505 104.05127,-106.2179 37.67361,-36.3523 74.28943,-73.77469 109.20343,-112.80218 -14.72574,-13.6434 -33.73941,-26.21339 -38.21419,-47.13662 -4.25455,-15.82367 -1.75188,-34.51646 9.78713,-46.73533 z"
       inkscape:connector-curvature="0" /><path
       style="fill:#3f51b5;fill-opacity:1;stroke:none"
       id="path18"
       d="m 340.22995,469.7786 c 14.20519,-12.05502 35.18429,-10.88463 51.70528,-4.85545 16.59776,7.0725 34.08312,12.53654 49.23599,22.59521 23.52849,15.10806 46.01254,32.04862 66.12738,51.51054 22.72763,18.4119 43.83353,38.95057 61.91954,61.99722 13.34761,15.73338 27.28251,34.11519 26.23138,55.90451 -9.86054,31.74766 -37.00623,54.95817 -65.24643,70.49425 -37.45338,19.08405 -79.22806,26.6548 -119.25753,38.36539 -17.31184,5.60115 -35.48461,7.64097 -53.48719,9.58382 -20.38513,1.10351 -40.88038,5.31692 -61.25216,1.70209 13.05396,-9.50692 28.85752,-13.73704 43.2062,-20.77945 41.20072,-17.82336 79.97885,-40.67606 120.12178,-60.70311 17.00484,-8.24957 33.65932,-18.76302 43.38306,-35.55978 -0.52057,-3.69175 -1.02778,-7.37346 -1.51829,-11.04514 -11.4289,-11.59355 -25.53731,-19.87991 -40.07953,-26.90225 -16.96814,14.05471 -36.52906,24.74539 -52.15911,40.4353 -42.89253,31.99512 -90.30656,57.07824 -135.98541,84.75629 -61.49242,34.63351 -119.66796,75.00862 -182.328298,107.59897 -3.65057,1.31083 -7.391238,2.33074 -11.218664,3.06307 24.062402,-26.27358 52.082362,-48.63472 75.774362,-75.26945 34.18989,-35.88749 68.37979,-71.79505 104.05127,-106.2179 37.67361,-36.3523 74.28943,-73.77469 109.20343,-112.80218 -14.72574,-13.6434 -33.73941,-26.21339 -38.21419,-47.13662 -4.25455,-15.82367 -1.75188,-34.51646 9.78713,-46.73533 z"
       inkscape:connector-curvature="0" /><path
       style="fill:#3f51b5;fill-opacity:1;stroke:#ffffff;stroke-width:3.84328103;stroke-miterlimit:4;stroke-dasharray:none;stroke-opacity:1"
       inkscape:connector-curvature="0"
       d="m 592.77767,565.2893 c 31.83813,-1.38721 113.47819,-10.22358 131.50574,-11.09755 35.82209,-1.73712 67.2541,-38.75077 89.06823,-52.71022 4.31754,-2.76301 -21.27594,-15.92105 -10.39168,-17.50718 10.1767,-1.48292 29.74103,-6.26539 34.15832,11.50214 15.78921,0.59729 29.66771,8.0436 36.66621,11.5503 8.30527,4.16138 13.84249,19.42092 13.84249,19.42092 l 48.44948,18.0334 c 0,0 0,16.6465 -9.68996,20.80819 -9.68995,4.16169 -35.90679,4.56784 -35.90679,4.56784 l -13.92661,-0.40631 c 12.30082,4.85409 34.94063,13.89239 33.79599,17.37468 -4.08188,16.19561 -35.11764,6.77217 -51.79173,7.59489 l -33.2224,24.96957 c 0,0 -3.17396,18.25728 -11.39557,30.33568 -8.29226,12.18154 -29.9667,31.74791 -30.13256,43.18581 -0.16893,11.58825 -2.76861,27.74405 -2.76861,27.74405 0,0 24.91678,62.42409 33.22246,76.29621 8.30568,13.87213 11.07428,27.74425 26.30106,33.2931 15.22677,5.54884 17.53657,0.69739 23.1866,5.54884 5.10217,4.38046 0.69244,15.25934 0.69244,15.25934 l -32.18432,0 c 0,0 -44.29679,-44.39079 -56.75531,-69.36062 -12.45852,-24.96981 -33.2224,-55.48798 -33.2224,-55.48798 0,0 -12.45862,-11.09754 -20.76394,0 -18.88394,21.51822 -38.40748,40.02595 -49.83381,66.16522 -6.68836,15.30028 -42.99597,43.10213 -42.99597,43.10213 0,0 2.90517,13.19747 -3.56484,27.33718 -5.41115,6.07341 -18.33194,-6.78193 -18.33194,-6.78193 l -0.16895,-27.1694 c 0,0 22.70713,-25.93606 34.6067,-44.39078 22.87025,-31.0202 23.53244,-59.64963 23.53244,-59.64963 l -95.51442,-22.1951 c 0,0 0,31.90574 -1.38424,43.00298 -1.38423,11.09724 -17.99573,55.48829 -17.99573,55.48829 l -2.76846,19.42097 c 0,0 21.88433,29.17795 32.80047,46.07895 1.90369,2.81687 16.0886,-4.20359 19.59035,-1.70155 3.55046,2.53691 2.28757,17.35304 2.28757,17.35304 l -35.64468,2.08056 -3.46069,-16.29936 -50.17975,-46.12443 c 0,0 15.22712,-59.64997 8.30568,-65.19892 -6.92145,-5.54895 -59.52337,-41.61606 -59.52337,-41.61606 0,0 -8.30583,26.35682 -26.30141,37.45437 -17.99558,11.09755 -48.44917,15.25924 -59.52347,41.61587 -11.07428,26.35662 -19.37996,40.22966 -19.37996,40.22966 0,0 -6.22885,13.52544 -2.07602,26.01009 12.45817,0 16.95691,6.93556 16.95691,6.93556 l -9.34331,12.83158 -19.02878,-0.35879 -14.88617,-15.24721 26.9935,-88.43415 c 0,0 33.22245,-24.96987 37.37529,-36.06742 4.15284,-11.09754 2.76811,-83.23213 15.22677,-95.71688 12.45867,-12.48477 24.91663,-26.35684 24.91663,-26.35684 0,0 -11.07388,-49.93913 6.92145,-91.5552 32.99522,-44.84788 93.22374,-101.76704 78.90337,-34.6802 -10.83782,32.58301 -52.60232,47.16502 -45.68097,73.52179 34.87074,13.46254 82.61203,0.3962 120.43141,0 l 9.8e-4,0 0,3.1e-4 z"
       id="path6-8" /><path
       inkscape:connector-curvature="0"
       id="path3782"
       d="m 553.77586,489.87482 74.23191,40.38273 133.61748,14.87783"
       style="fill:none;stroke:#3f51b5;stroke-width:16.70217323;stroke-linecap:butt;stroke-linejoin:miter;stroke-miterlimit:4;stroke-dasharray:none;stroke-opacity:1" /></g></svg>