<?xml version="1.0" encoding="UTF-8" standalone="no"?>
<svg
   xmlns:dc="http://purl.org/dc/elements/1.1/"
   xmlns:cc="http://creativecommons.org/ns#"
   xmlns:rdf="http://www.w3.org/1999/02/22-rdf-syntax-ns#"
   xmlns:svg="http://www.w3.org/2000/svg"
   xmlns="http://www.w3.org/2000/svg"
   xmlns:sodipodi="http://sodipodi.sourceforge.net/DTD/sodipodi-0.dtd"
   xmlns:inkscape="http://www.inkscape.org/namespaces/inkscape"
   enable-background="new 0 0 300 300"
   viewBox="0 0 51 50.999999"
   xml:space="preserve"
   id="svg2"
   version="1.1"
   inkscape:version="0.48.5 r10040"
   width="100%"
   height="100%"
   sodipodi:docname="canicross.svg"><metadata
     id="metadata24"><rdf:RDF><cc:Work
         rdf:about=""><dc:format>image/svg+xml</dc:format><dc:type
           rdf:resource="http://purl.org/dc/dcmitype/StillImage" /><dc:title /></cc:Work></rdf:RDF></metadata><defs
     id="defs22" /><sodipodi:namedview
     pagecolor="#ffffff"
     bordercolor="#666666"
     borderopacity="1"
     objecttolerance="10"
     gridtolerance="10"
     guidetolerance="10"
     inkscape:pageopacity="0"
     inkscape:pageshadow="2"
     inkscape:window-width="1326"
     inkscape:window-height="715"
     id="namedview20"
     showgrid="false"
     inkscape:zoom="6.2933332"
     inkscape:cx="33.473517"
     inkscape:cy="23.092294"
     inkscape:window-x="40"
     inkscape:window-y="31"
     inkscape:window-maximized="1"
     inkscape:current-layer="svg2"
     fit-margin-top="3"
     fit-margin-left="3"
     fit-margin-right="3"
     fit-margin-bottom="3" /><g
     id="g3062"
     transform="matrix(0.14968288,0,0,0.15,2.9999991,3.0000001)"><rect
       ry="30.566406"
       y="-1.5829094e-07"
       x="0"
       height="300"
       width="300.63559"
       id="rect3769"
       style="fill:#000000;fill-opacity:1;stroke:none" /><path
       style="fill:#ffffff;fill-opacity:1;stroke:none"
       id="path4"
       stroke-miterlimit="10"
       d="m 108.422,50.727 c 10.115,-4.038 21.298,-1.269 30.866,2.97 10.676,5.017 21.583,12.316 25.963,23.775 1.965,4.676 0.675,10.132 -2.701,13.797 -2.656,2.269 -6.434,1.636 -9.617,1.315 -7.225,-1.551 -11.649,-7.978 -17.263,-12.188 -4.867,-4.284 -10.048,-8.922 -16.636,-10.107 -5.877,-0.971 -10.982,2.918 -14.749,6.952 -5.669,6.993 -9.25,15.397 -12.042,23.882 -1.814,7.4 -5.674,14.461 -5.209,22.271 -0.552,-7.204 -2.607,-14.216 -2.804,-21.455 -0.368,-9.334 0.816,-18.72 3.16,-27.745 4.299,-9.672 10.943,-19.245 21.032,-23.467 z"
       inkscape:connector-curvature="0" /><path
       style="fill:#ffffff;fill-opacity:1;stroke:none"
       id="path6"
       d="m 108.422,50.727 c 10.115,-4.038 21.298,-1.269 30.866,2.97 10.676,5.017 21.583,12.316 25.963,23.775 1.965,4.676 0.675,10.132 -2.701,13.797 -2.656,2.269 -6.434,1.636 -9.617,1.315 -7.225,-1.551 -11.649,-7.978 -17.263,-12.188 -4.867,-4.284 -10.048,-8.922 -16.636,-10.107 -5.877,-0.971 -10.982,2.918 -14.749,6.952 -5.669,6.993 -9.25,15.397 -12.042,23.882 -1.814,7.4 -5.674,14.461 -5.209,22.271 -0.552,-7.204 -2.607,-14.216 -2.804,-21.455 -0.368,-9.334 0.816,-18.72 3.16,-27.745 4.299,-9.672 10.943,-19.245 21.032,-23.467 z"
       inkscape:connector-curvature="0" /><path
       style="fill:#ffffff;fill-opacity:1;stroke:none"
       id="path8"
       stroke-miterlimit="10"
       d="m 200.646,56.913 c 7.324,-0.85 15.021,2.023 19.936,7.537 3.334,4.104 5.573,9.274 5.537,14.615 -0.646,6.494 -3.914,12.911 -9.367,16.643 -6.428,4.556 -15.215,5.505 -22.448,2.347 C 183.558,93.972 177.3,80.139 182.823,69.69 c 3.108,-7.108 10.273,-11.733 17.823,-12.777 z"
       inkscape:connector-curvature="0" /><path
       style="fill:#ffffff;fill-opacity:1;stroke:none"
       id="path10"
       d="m 200.646,56.913 c 7.324,-0.85 15.021,2.023 19.936,7.537 3.334,4.104 5.573,9.274 5.537,14.615 -0.646,6.494 -3.914,12.911 -9.367,16.643 -6.428,4.556 -15.215,5.505 -22.448,2.347 C 183.558,93.972 177.3,80.139 182.823,69.69 c 3.108,-7.108 10.273,-11.733 17.823,-12.777 z"
       inkscape:connector-curvature="0" /><path
       style="fill:#ffffff;fill-opacity:1;stroke:none"
       id="path12"
       stroke-miterlimit="10"
       d="m 276.883,94.662 c 0.433,-0.024 0.871,-0.035 1.313,-0.027 -0.184,3.852 0.82,7.701 0.184,11.538 -1.017,6.596 -3.673,12.791 -6.55,18.764 -6.32,14.098 -18.271,25.74 -32.761,31.219 -6.652,2.346 -14.544,2.166 -20.538,-1.839 -9.694,-6.329 -17.318,-15.983 -20.652,-27.126 -2.111,-6.018 -2.184,-13.245 1.445,-18.699 1.815,-2.39 4.266,-5.059 7.545,-4.88 3.388,0.313 6.416,2.348 8.462,5 4.817,6.323 5.825,14.547 9.796,21.298 3.322,4.354 8.694,9.526 14.633,6.979 7.157,-3.026 13.18,-8.173 19,-13.22 7.358,-6.328 12.479,-14.775 16.567,-23.473 0.821,-1.745 1.394,-3.605 1.556,-5.534 z"
       inkscape:connector-curvature="0" /><path
       style="fill:#ffffff;fill-opacity:1;stroke:none"
       id="path14"
       d="m 276.883,94.662 c 0.433,-0.024 0.871,-0.035 1.313,-0.027 -0.184,3.852 0.82,7.701 0.184,11.538 -1.017,6.596 -3.673,12.791 -6.55,18.764 -6.32,14.098 -18.271,25.74 -32.761,31.219 -6.652,2.346 -14.544,2.166 -20.538,-1.839 -9.694,-6.329 -17.318,-15.983 -20.652,-27.126 -2.111,-6.018 -2.184,-13.245 1.445,-18.699 1.815,-2.39 4.266,-5.059 7.545,-4.88 3.388,0.313 6.416,2.348 8.462,5 4.817,6.323 5.825,14.547 9.796,21.298 3.322,4.354 8.694,9.526 14.633,6.979 7.157,-3.026 13.18,-8.173 19,-13.22 7.358,-6.328 12.479,-14.775 16.567,-23.473 0.821,-1.745 1.394,-3.605 1.556,-5.534 z"
       inkscape:connector-curvature="0" /><path
       transform="matrix(0.7986368,0.60181332,-0.60181332,0.7986368,227.1269,118.15712)"
       d="m -36.228811,59.110168 c 0,2.808228 -12.094004,5.084746 -27.012713,5.084746 -14.918709,0 -27.012712,-2.276518 -27.012712,-5.084746 0,-2.808227 12.094003,-5.084745 27.012712,-5.084745 14.918709,0 27.012713,2.276518 27.012713,5.084745 z"
       sodipodi:ry="5.0847459"
       sodipodi:rx="27.012712"
       sodipodi:cy="59.110168"
       sodipodi:cx="-63.241524"
       id="path3780"
       style="fill:none;stroke:#ffffff;stroke-width:5;stroke-miterlimit:4;stroke-opacity:1;stroke-dasharray:none"
       sodipodi:type="arc" /><path
       style="fill:#ffffff;fill-opacity:1;stroke:none"
       id="path16"
       stroke-miterlimit="10"
       d="m 98.081,135.092 c 4.257,-3.605 10.544,-3.255 15.495,-1.452 4.974,2.115 10.214,3.749 14.755,6.757 7.051,4.518 13.789,9.584 19.817,15.404 6.811,5.506 13.136,11.648 18.556,18.54 4,4.705 8.176,10.202 7.861,16.718 -2.955,9.494 -11.09,16.435 -19.553,21.081 -11.224,5.707 -23.743,7.971 -35.739,11.473 -5.188,1.675 -10.634,2.285 -16.029,2.866 -6.109,0.33 -12.251,1.59 -18.356,0.509 3.912,-2.843 8.648,-4.108 12.948,-6.214 12.347,-5.33 23.968,-12.164 35.998,-18.153 5.096,-2.467 10.087,-5.611 13.001,-10.634 -0.156,-1.104 -0.308,-2.205 -0.455,-3.303 -3.425,-3.467 -7.653,-5.945 -12.011,-8.045 -5.085,4.203 -10.947,7.4 -15.631,12.092 -12.854,9.568 -27.063,17.069 -40.752,25.346 -18.428,10.357 -35.862,22.431 -54.64,32.177 -1.094,0.392 -2.215,0.697 -3.362,0.916 7.211,-7.857 15.608,-14.544 22.708,-22.509 10.246,-10.732 20.492,-21.47 31.182,-31.764 11.29,-10.871 22.263,-22.062 32.726,-33.733 -4.413,-4.08 -10.111,-7.839 -11.452,-14.096 -1.275,-4.732 -0.525,-10.322 2.933,-13.976 z"
       inkscape:connector-curvature="0" /><path
       style="fill:#ffffff;fill-opacity:1;stroke:none"
       id="path18"
       d="m 98.081,135.092 c 4.257,-3.605 10.544,-3.255 15.495,-1.452 4.974,2.115 10.214,3.749 14.755,6.757 7.051,4.518 13.789,9.584 19.817,15.404 6.811,5.506 13.136,11.648 18.556,18.54 4,4.705 8.176,10.202 7.861,16.718 -2.955,9.494 -11.09,16.435 -19.553,21.081 -11.224,5.707 -23.743,7.971 -35.739,11.473 -5.188,1.675 -10.634,2.285 -16.029,2.866 -6.109,0.33 -12.251,1.59 -18.356,0.509 3.912,-2.843 8.648,-4.108 12.948,-6.214 12.347,-5.33 23.968,-12.164 35.998,-18.153 5.096,-2.467 10.087,-5.611 13.001,-10.634 -0.156,-1.104 -0.308,-2.205 -0.455,-3.303 -3.425,-3.467 -7.653,-5.945 -12.011,-8.045 -5.085,4.203 -10.947,7.4 -15.631,12.092 -12.854,9.568 -27.063,17.069 -40.752,25.346 -18.428,10.357 -35.862,22.431 -54.64,32.177 -1.094,0.392 -2.215,0.697 -3.362,0.916 7.211,-7.857 15.608,-14.544 22.708,-22.509 10.246,-10.732 20.492,-21.47 31.182,-31.764 11.29,-10.871 22.263,-22.062 32.726,-33.733 -4.413,-4.08 -10.111,-7.839 -11.452,-14.096 -1.275,-4.732 -0.525,-10.322 2.933,-13.976 z"
       inkscape:connector-curvature="0" /><g
       style="fill:#ffffff;fill-opacity:1;stroke:#000000;stroke-opacity:1"
       id="g4"
       transform="matrix(1.511256,0,0,1.511256,-505.37663,-1260.7719)"><path
         id="path6-8"
         d="m 449.3884,942.54445 c 6.31344,-0.2745 22.50251,-2.02303 26.07734,-2.19597 7.10345,-0.34374 13.33636,-7.66796 17.66206,-10.43024 0.85616,-0.54674 -4.21898,-3.15044 -2.06065,-3.4643 2.01802,-0.29344 5.89759,-1.23979 6.77353,2.27603 3.13097,0.11819 5.88305,1.59166 7.27084,2.28556 1.64692,0.82345 2.74494,3.84299 2.74494,3.84299 l 9.60744,3.56843 c 0,0 0,3.29399 -1.9215,4.1175 -1.9215,0.82351 -7.12025,0.90388 -7.12025,0.90388 l -2.76162,-0.0804 c 2.43923,0.96052 6.92866,2.74901 6.70168,3.43808 -0.80943,3.20477 -6.96376,1.34007 -10.2702,1.50287 l -6.58794,4.94095 c 0,0 -0.62939,3.61273 -2.25972,6.00279 -1.64434,2.41047 -5.94234,6.28224 -5.97523,8.54556 -0.0335,2.29307 -0.54901,5.48996 -0.54901,5.48996 0,0 4.94095,12.35241 6.58795,15.09741 1.647,2.745 2.19601,5.49 5.21545,6.588 3.01944,1.098 3.47747,0.138 4.59786,1.098 1.01175,0.8668 0.13731,3.0195 0.13731,3.0195 h -6.38209 c 0,0 -8.78397,-8.784 -11.25447,-13.725 -2.4705,-4.941 -6.58794,-10.9799 -6.58794,-10.9799 0,0 -2.47052,-2.19597 -4.11745,0 -3.74465,4.258 -7.61613,7.92029 -9.88195,13.0927 -1.32629,3.0276 -8.52602,8.529 -8.52602,8.529 0,0 0.57609,2.6115 -0.7069,5.40945 -1.07302,1.2018 -3.63519,-1.342 -3.63519,-1.342 l -0.0335,-5.37625 c 0,0 4.50278,-5.1322 6.86244,-8.784 4.53513,-6.13824 4.66644,-11.8034 4.66644,-11.8034 l -18.94033,-4.39194 c 0,0 0,6.31347 -0.27449,8.50938 -0.27449,2.19591 -3.56852,10.97996 -3.56852,10.97996 l -0.54898,3.843 c 0,0 4.33962,5.7737 6.50427,9.11805 0.3775,0.5574 3.19034,-0.8318 3.88473,-0.3367 0.70405,0.502 0.45362,3.4338 0.45362,3.4338 l -7.06827,0.4117 -0.68625,-3.2253 -9.95055,-9.12705 c 0,0 3.01951,-11.80347 1.647,-12.90149 -1.37251,-1.09802 -11.80337,-8.23494 -11.80337,-8.23494 0,0 -1.64703,5.21546 -5.21552,7.41143 -3.56849,2.19597 -9.60738,3.01948 -11.80339,8.2349 -2.19601,5.21542 -3.84301,7.9606 -3.84301,7.9606 0,0 -1.23517,2.6764 -0.41167,5.14685 2.47043,0 3.36252,1.3724 3.36252,1.3724 l -1.85276,2.5391 -3.77337,-0.071 -2.9519,-3.0171 5.35276,-17.49925 c 0,0 6.58795,-4.94101 7.41145,-7.13698 0.8235,-2.19597 0.54891,-16.46988 3.01944,-18.94035 2.47053,-2.47047 4.94092,-5.21546 4.94092,-5.21546 0,0 -2.19593,-9.8819 1.37251,-18.11684 6.54289,-8.87445 18.48609,-20.13755 15.64639,-6.86248 -2.14912,6.44749 -10.43094,9.33296 -9.05845,14.54841 6.9148,2.66395 16.38181,0.0784 23.88132,0 h 2.4e-4 v 6e-5 z"
         inkscape:connector-curvature="0"
         style="fill:#ffffff;fill-opacity:1;stroke:#000000;stroke-width:0.76122999;stroke-opacity:1" /></g><path
       inkscape:connector-curvature="0"
       id="path3782"
       d="m 162.07627,141.10169 22.24576,12.07628 40.04238,4.44915"
       style="fill:none;stroke:#ffffff;stroke-width:5;stroke-linecap:butt;stroke-linejoin:miter;stroke-miterlimit:4;stroke-opacity:1;stroke-dasharray:none" /></g></svg>