<?xml version="1.0" encoding="UTF-8" standalone="no"?>
<svg
   xmlns:dc="http://purl.org/dc/elements/1.1/"
   xmlns:cc="http://creativecommons.org/ns#"
   xmlns:rdf="http://www.w3.org/1999/02/22-rdf-syntax-ns#"
   xmlns:svg="http://www.w3.org/2000/svg"
   xmlns="http://www.w3.org/2000/svg"
   xmlns:sodipodi="http://sodipodi.sourceforge.net/DTD/sodipodi-0.dtd"
   xmlns:inkscape="http://www.inkscape.org/namespaces/inkscape"
   enable-background="new 0 0 300 300"
   viewBox="-52224 0 0 50.999999"
   xml:space="preserve"
   id="svg2"
   version="1.1"
   inkscape:version="0.91 r13725"
   width="1024"
   height="1024"
   sodipodi:docname="cycling.svg"
   inkscape:export-filename="/home/roman/workspace/eclipse/LibreSportGPS/res/drawable/svg/cycling.png"
   inkscape:export-xdpi="90"
   inkscape:export-ydpi="90"><metadata
     id="metadata32"><rdf:RDF><cc:Work
         rdf:about=""><dc:format>image/svg+xml</dc:format><dc:type
           rdf:resource="http://purl.org/dc/dcmitype/StillImage" /><dc:title></dc:title></cc:Work></rdf:RDF></metadata><defs
     id="defs30"><inkscape:perspective
       sodipodi:type="inkscape:persp3d"
       inkscape:vp_x="0 : 2.9411765 : 1"
       inkscape:vp_y="0 : 19.607844 : 0"
       inkscape:vp_z="5.8823529 : 2.9411765 : 1"
       inkscape:persp3d-origin="2.9411765 : 1.9607844 : 1"
       id="perspective3009" /></defs><sodipodi:namedview
     pagecolor="#ffffff"
     bordercolor="#666666"
     borderopacity="1"
     objecttolerance="10"
     gridtolerance="10"
     guidetolerance="10"
     inkscape:pageopacity="0"
     inkscape:pageshadow="2"
     inkscape:window-width="1366"
     inkscape:window-height="670"
     id="namedview28"
     showgrid="false"
     inkscape:zoom="0.27812868"
     inkscape:cx="-384.09072"
     inkscape:cy="514.89098"
     inkscape:window-x="0"
     inkscape:window-y="28"
     inkscape:window-maximized="1"
     inkscape:current-layer="svg2"
     fit-margin-top="3"
     fit-margin-left="3"
     fit-margin-right="3"
     fit-margin-bottom="3" /><g
     id="g4188"
     transform="matrix(6.6126952,0,0,6.6126952,-495.76738,1184.5195)"><rect
       ry="15.203321"
       y="-176.42676"
       x="77.573174"
       height="149.85365"
       width="149.85365"
       id="rect3779"
       style="fill:none;fill-opacity:1;stroke:#ff4081;stroke-width:5;stroke-miterlimit:4;stroke-dasharray:none;stroke-opacity:1" /><path
       style="fill:#3f51b5;fill-opacity:1;stroke:none;stroke-miterlimit:10"
       id="path4"
       stroke-miterlimit="10"
       d="m 190.17621,-154.22307 c 3.62614,-0.34965 7.46053,1.14222 9.73764,4.03216 1.58531,1.8074 2.30614,4.19771 2.55792,6.55039 -0.10111,3.60577 -1.93121,7.13629 -4.94916,9.14335 -2.8838,1.85054 -6.63109,2.42441 -9.86779,1.20142 -4.96418,-1.5636 -8.33754,-7.1975 -7.15068,-12.31069 0.99013,-4.57444 5.03626,-8.13807 9.67207,-8.61663 z"
       inkscape:connector-curvature="0" /><path
       style="fill:#3f51b5;fill-opacity:1;stroke:none"
       id="path6"
       d="m 190.17621,-154.22307 c 3.62614,-0.34965 7.46053,1.14222 9.73764,4.03216 1.58531,1.8074 2.30614,4.19771 2.55792,6.55039 -0.10111,3.60577 -1.93121,7.13629 -4.94916,9.14335 -2.8838,1.85054 -6.63109,2.42441 -9.86779,1.20142 -4.96418,-1.5636 -8.33754,-7.1975 -7.15068,-12.31069 0.99013,-4.57444 5.03626,-8.13807 9.67207,-8.61663 z"
       inkscape:connector-curvature="0" /><path
       style="fill:#3f51b5;fill-opacity:1;stroke:none;stroke-miterlimit:10"
       id="path8"
       stroke-miterlimit="10"
       d="m 167.95428,-139.04051 c 1.85963,-1.61627 4.86307,-2.12243 6.94395,-0.6125 2.51137,1.69002 3.48548,4.72393 4.73141,7.33646 1.70996,4.40287 4.53719,8.3633 8.18887,11.35607 4.42606,3.66346 9.57946,6.31161 14.78141,8.67984 3.13158,1.54906 6.8188,1.1322 9.98893,2.54681 -6.25115,0.305 -12.63145,-0.0391 -18.67637,-1.78432 -6.54699,-1.59671 -13.17658,-4.21125 -17.95354,-9.14235 -3.54305,-3.74121 -6.88037,-7.86869 -8.67242,-12.76417 -0.66076,-1.82295 -0.88351,-4.17062 0.66776,-5.61584 z"
       inkscape:connector-curvature="0" /><path
       style="fill:#3f51b5;fill-opacity:1;stroke:none"
       id="path10"
       d="m 167.95428,-139.04051 c 1.85963,-1.61627 4.86307,-2.12243 6.94395,-0.6125 2.51137,1.69002 3.48548,4.72393 4.73141,7.33646 1.70996,4.40287 4.53719,8.3633 8.18887,11.35607 4.42606,3.66346 9.57946,6.31161 14.78141,8.67984 3.13158,1.54906 6.8188,1.1322 9.98893,2.54681 -6.25115,0.305 -12.63145,-0.0391 -18.67637,-1.78432 -6.54699,-1.59671 -13.17658,-4.21125 -17.95354,-9.14235 -3.54305,-3.74121 -6.88037,-7.86869 -8.67242,-12.76417 -0.66076,-1.82295 -0.88351,-4.17062 0.66776,-5.61584 z"
       inkscape:connector-curvature="0" /><path
       style="fill:#3f51b5;fill-opacity:1;stroke:none;stroke-miterlimit:10"
       id="path12"
       stroke-miterlimit="10"
       d="m 132.34204,-122.60886 c 0.59067,-2.49264 2.60798,-4.25489 4.90261,-5.18091 2.66104,0.49712 4.83453,2.43645 5.8587,4.91655 1.72147,3.88468 1.98978,8.18472 2.31865,12.36487 1.71647,16.829439 2.54391,33.73062 3.34683,50.624775 0.014,1.83148 0.11613,3.675499 -0.14817,5.497447 -1.16683,-1.820944 -1.68743,-3.949895 -2.33467,-5.988551 -1.43714,-4.901502 -2.94387,-9.784945 -4.3705,-14.687451 -2.27711,-10.711972 -5.72956,-21.130486 -7.81744,-31.8871 -0.95109,-5.14229 -3.04949,-10.38842 -1.75601,-15.65963 z"
       inkscape:connector-curvature="0" /><path
       style="fill:#3f51b5;fill-opacity:1;stroke:none"
       id="path14"
       d="m 132.34204,-122.60886 c 0.59067,-2.49264 2.60798,-4.25489 4.90261,-5.18091 2.66104,0.49712 4.83453,2.43645 5.8587,4.91655 1.72147,3.88468 1.98978,8.18472 2.31865,12.36487 1.71647,16.829439 2.54391,33.73062 3.34683,50.624775 0.014,1.83148 0.11613,3.675499 -0.14817,5.497447 -1.16683,-1.820944 -1.68743,-3.949895 -2.33467,-5.988551 -1.43714,-4.901502 -2.94387,-9.784945 -4.3705,-14.687451 -2.27711,-10.711972 -5.72956,-21.130486 -7.81744,-31.8871 -0.95109,-5.14229 -3.04949,-10.38842 -1.75601,-15.65963 z"
       inkscape:connector-curvature="0" /><path
       style="fill:#3f51b5;fill-opacity:1;stroke:none;stroke-miterlimit:10"
       id="path16"
       stroke-miterlimit="10"
       d="m 145.72084,-120.52807 c -0.37142,-2.33061 0.90804,-4.62811 2.64653,-6.09439 5.43022,-0.77002 10.94653,1.08604 15.39111,4.18366 3.88845,2.45802 8.54778,5.38608 9.14597,10.39644 0.0726,4.48263 -2.41627,8.56797 -5.35163,11.78246 -4.06765,4.426455 -8.36757,8.629679 -12.45074,13.043087 -1.36757,1.332852 -2.57495,2.977221 -4.42907,3.654933 0.1717,-1.193396 0.42549,-2.390806 0.99163,-3.463809 3.94352,-7.701644 7.6888,-15.501611 11.46212,-23.285521 -4.50065,-1.73165 -9.21755,-3.07554 -13.34177,-5.64694 -1.69243,-1.14172 -3.54856,-2.46655 -4.06415,-4.56992 z"
       inkscape:connector-curvature="0" /><path
       style="fill:#3f51b5;fill-opacity:1;stroke:none"
       id="path18"
       d="m 145.72084,-120.52807 c -0.37142,-2.33061 0.90804,-4.62811 2.64653,-6.09439 5.43022,-0.77002 10.94653,1.08604 15.39111,4.18366 3.88845,2.45802 8.54778,5.38608 9.14597,10.39644 0.0726,4.48263 -2.41627,8.56797 -5.35163,11.78246 -4.06765,4.426455 -8.36757,8.629679 -12.45074,13.043087 -1.36757,1.332852 -2.57495,2.977221 -4.42907,3.654933 0.1717,-1.193396 0.42549,-2.390806 0.99163,-3.463809 3.94352,-7.701644 7.6888,-15.501611 11.46212,-23.285521 -4.50065,-1.73165 -9.21755,-3.07554 -13.34177,-5.64694 -1.69243,-1.14172 -3.54856,-2.46655 -4.06415,-4.56992 z"
       inkscape:connector-curvature="0" /><path
       style="fill:#3f51b5;fill-opacity:1;stroke:#3f51b5;stroke-width:0.0501105;stroke-miterlimit:10;stroke-opacity:1"
       id="path20"
       stroke-miterlimit="10"
       d="m 109.54896,-107.49702 c 6.29871,-1.26463 13.1956,0.3978 18.04314,4.67426 3.58911,3.259639 6.22112,7.57272 7.30636,12.318716 2.02232,7.183953 0.82695,14.922719 -1.97125,21.727435 -3.00694,6.245891 -7.45904,12.047834 -13.57303,15.49258 -5.40619,3.518989 -12.24802,4.655198 -18.50968,3.159315 -6.129013,-1.589189 -11.30143,-6.209774 -13.889391,-11.959547 -4.521173,-9.744312 -3.063505,-21.679277 2.654036,-30.610436 4.283902,-7.366053 11.583255,-12.974863 19.939815,-14.802323 z"
       inkscape:connector-curvature="0" /><path
       style="fill:#3f51b5;fill-opacity:1;stroke:#3f51b5;stroke-width:0.50110495;stroke-opacity:1"
       id="path22"
       d="m 113.73725,-107.90987 c 5.02725,0 10.06652,1.7457 13.85485,5.08761 3.58911,3.259641 6.22112,7.572722 7.30636,12.318718 2.02232,7.183953 0.82695,14.922719 -1.97125,21.727435 -3.00694,6.245891 -7.45904,12.047833 -13.57303,15.49258 -3.84841,2.504677 -8.42514,3.802916 -13.00138,3.802916 -1.85262,0 -3.70374,-0.212696 -5.5083,-0.643602 -6.129013,-1.589188 -11.30143,-6.209773 -13.889391,-11.959546 -4.521173,-9.744312 -3.063505,-21.679278 2.654036,-30.610436 4.283401,-7.365545 11.582755,-12.974355 19.939315,-14.801825 1.37707,-0.27741 2.78268,-0.41385 4.18879,-0.41385 m 4.4e-4,3.00983 0,0 c -1.20788,0 -2.40976,0.11738 -3.57259,0.34914 -7.31186,1.60674 -14.024543,6.604056 -17.960547,13.371651 l -0.03254,0.05518 -0.03454,0.05368 c -5.395674,8.428517 -6.360778,19.307534 -2.458813,27.716989 l 0.0075,0.01505 0.007,0.01605 c 2.258083,5.015876 6.806286,8.950722 11.87509,10.275547 1.55127,0.367701 3.16061,0.554813 4.78497,0.554813 4.04263,0 8.07924,-1.178347 11.3655,-3.317331 l 0.0806,-0.05217 0.0836,-0.04765 c 6.21762,-3.502937 10.11658,-9.583287 12.30158,-14.097526 1.99778,-4.887457 3.91748,-12.241967 1.82408,-19.681255 l -0.0205,-0.07224 -0.0165,-0.07274 c -0.92005,-4.023636 -3.18564,-7.839093 -6.3793,-10.746088 -3.12307,-2.74596 -7.44301,-4.3211 -11.85456,-4.3211 z"
       inkscape:connector-curvature="0" /><path
       style="fill:#3f51b5;fill-opacity:1;stroke:#3f51b5;stroke-width:0.0501105;stroke-miterlimit:10;stroke-opacity:1"
       id="path24"
       stroke-miterlimit="10"
       d="m 193.18265,-106.50278 c 5.71654,-1.12417 11.92464,0.1229 16.64003,3.59073 4.81601,3.59724 7.96912,9.139835 9.06037,15.024047 2.49285,12.350822 -2.8833,25.626665 -12.62194,33.418604 -4.71139,3.520995 -10.35034,6.18419 -16.35171,5.967483 -7.22927,0.265365 -14.19574,-3.860605 -17.94653,-9.963028 -4.3695,-7.092655 -5.10084,-16.055417 -2.81072,-23.978785 1.08625,-4.706867 3.60863,-8.941693 6.45389,-12.780225 4.33395,-5.643926 10.62315,-9.741806 17.57661,-11.278826 z"
       inkscape:connector-curvature="0" /><path
       style="fill:#3f51b5;fill-opacity:1;stroke:#3f51b5;stroke-width:0.50110495;stroke-opacity:1"
       id="path26"
       d="m 197.3364,-106.90459 c 4.44408,0 8.89718,1.35292 12.48628,3.99254 4.81601,3.59724 7.96912,9.139835 9.06037,15.024047 2.49285,12.350822 -2.8833,25.626665 -12.62194,33.418604 -4.53169,3.386557 -9.92185,5.980023 -15.66743,5.980023 -0.22776,0 -0.45552,-0.004 -0.68428,-0.01204 -0.21975,0.0085 -0.441,0.01204 -0.66026,0.01204 -6.99099,0 -13.65011,-4.05875 -17.28577,-9.975568 -4.3695,-7.092655 -5.10084,-16.055417 -2.81072,-23.978785 1.08625,-4.706867 3.60863,-8.941693 6.45389,-12.780225 4.33395,-5.644426 10.62365,-9.742306 17.57661,-11.279326 1.36456,-0.26787 2.75915,-0.40131 4.15325,-0.40131 m 4.4e-4,3.00983 c -1.19637,0 -2.38824,0.11387 -3.54306,0.3391 -6.125,1.36346 -11.87859,5.060024 -15.79307,10.148637 -3.20616,4.330137 -5.08882,8.030217 -5.92227,11.641507 l -0.0185,0.08026 -0.023,0.07926 c -2.15947,7.472397 -1.23191,15.53221 2.48184,21.559889 3.19115,5.193457 8.97277,8.546905 14.73035,8.546905 0.18271,0 0.36642,-0.0035 0.55013,-0.01054 l 0.10963,-0.004 0.10962,0.004 c 0.19272,0.007 0.38444,0.01054 0.57566,0.01054 4.41255,0 9.06638,-1.801382 13.83283,-5.35398 9.0894,-7.297826 13.71569,-19.52324 11.51267,-30.438376 l -0.005,-0.02358 -0.005,-0.02358 c -0.99264,-5.35448 -3.87293,-10.15114 -7.90204,-13.160472 -2.9714,-2.18513 -6.77475,-3.39558 -10.69123,-3.39558 z"
       inkscape:connector-curvature="0" /></g></svg>