<?xml version="1.0" encoding="UTF-8" standalone="no"?>
<svg
   xmlns:dc="http://purl.org/dc/elements/1.1/"
   xmlns:cc="http://creativecommons.org/ns#"
   xmlns:rdf="http://www.w3.org/1999/02/22-rdf-syntax-ns#"
   xmlns:svg="http://www.w3.org/2000/svg"
   xmlns="http://www.w3.org/2000/svg"
   xmlns:sodipodi="http://sodipodi.sourceforge.net/DTD/sodipodi-0.dtd"
   xmlns:inkscape="http://www.inkscape.org/namespaces/inkscape"
   enable-background="new 0 0 300 300"
   viewBox="0 0 51 50.999999"
   xml:space="preserve"
   id="svg2"
   version="1.1"
   inkscape:version="0.48.5 r10040"
   width="100%"
   height="100%"
   sodipodi:docname="cycling.svg"><metadata
     id="metadata32"><rdf:RDF><cc:Work
         rdf:about=""><dc:format>image/svg+xml</dc:format><dc:type
           rdf:resource="http://purl.org/dc/dcmitype/StillImage" /></cc:Work></rdf:RDF></metadata><defs
     id="defs30"><inkscape:perspective
       sodipodi:type="inkscape:persp3d"
       inkscape:vp_x="0 : 150 : 1"
       inkscape:vp_y="0 : 1000 : 0"
       inkscape:vp_z="300 : 150 : 1"
       inkscape:persp3d-origin="150 : 100 : 1"
       id="perspective3009" /></defs><sodipodi:namedview
     pagecolor="#ffffff"
     bordercolor="#666666"
     borderopacity="1"
     objecttolerance="10"
     gridtolerance="10"
     guidetolerance="10"
     inkscape:pageopacity="0"
     inkscape:pageshadow="2"
     inkscape:window-width="1326"
     inkscape:window-height="715"
     id="namedview28"
     showgrid="false"
     inkscape:zoom="8.9001172"
     inkscape:cx="25.489832"
     inkscape:cy="24.814762"
     inkscape:window-x="40"
     inkscape:window-y="31"
     inkscape:window-maximized="1"
     inkscape:current-layer="svg2"
     fit-margin-top="3"
     fit-margin-left="3"
     fit-margin-right="3"
     fit-margin-bottom="3" /><g
     id="g3077"
     transform="matrix(0.15031847,0,0,0.15063829,2.9044586,2.9042553)"><rect
       ry="30.307369"
       y="0.63559306"
       x="0.63559324"
       height="298.72882"
       width="299.36441"
       id="rect3779"
       style="fill:#000000;fill-opacity:1;stroke:none" /><path
       style="fill:#ffffff;fill-opacity:1;stroke:none"
       id="path4"
       stroke-miterlimit="10"
       d="m 225.584,44.898 c 7.244,-0.697 14.904,2.277 19.453,8.038 3.167,3.603 4.607,8.368 5.11,13.058 -0.202,7.188 -3.858,14.226 -9.887,18.227 -5.761,3.689 -13.247,4.833 -19.713,2.395 -9.917,-3.117 -16.656,-14.348 -14.285,-24.541 1.978,-9.119 10.061,-16.223 19.322,-17.177 z"
       inkscape:connector-curvature="0" /><path
       style="fill:#ffffff;fill-opacity:1;stroke:none"
       id="path6"
       d="m 225.584,44.898 c 7.244,-0.697 14.904,2.277 19.453,8.038 3.167,3.603 4.607,8.368 5.11,13.058 -0.202,7.188 -3.858,14.226 -9.887,18.227 -5.761,3.689 -13.247,4.833 -19.713,2.395 -9.917,-3.117 -16.656,-14.348 -14.285,-24.541 1.978,-9.119 10.061,-16.223 19.322,-17.177 z"
       inkscape:connector-curvature="0" /><path
       style="fill:#ffffff;fill-opacity:1;stroke:none"
       id="path8"
       stroke-miterlimit="10"
       d="m 181.191,75.164 c 3.715,-3.222 9.715,-4.231 13.872,-1.221 5.017,3.369 6.963,9.417 9.452,14.625 3.416,8.777 9.064,16.672 16.359,22.638 8.842,7.303 19.137,12.582 29.529,17.303 6.256,3.088 13.622,2.257 19.955,5.077 -12.488,0.608 -25.234,-0.078 -37.31,-3.557 -13.079,-3.183 -26.323,-8.395 -35.866,-18.225 -7.078,-7.458 -13.745,-15.686 -17.325,-25.445 -1.32,-3.634 -1.765,-8.314 1.334,-11.195 z"
       inkscape:connector-curvature="0" /><path
       style="fill:#ffffff;fill-opacity:1;stroke:none"
       id="path10"
       d="m 181.191,75.164 c 3.715,-3.222 9.715,-4.231 13.872,-1.221 5.017,3.369 6.963,9.417 9.452,14.625 3.416,8.777 9.064,16.672 16.359,22.638 8.842,7.303 19.137,12.582 29.529,17.303 6.256,3.088 13.622,2.257 19.955,5.077 -12.488,0.608 -25.234,-0.078 -37.31,-3.557 -13.079,-3.183 -26.323,-8.395 -35.866,-18.225 -7.078,-7.458 -13.745,-15.686 -17.325,-25.445 -1.32,-3.634 -1.765,-8.314 1.334,-11.195 z"
       inkscape:connector-curvature="0" /><path
       style="fill:#ffffff;fill-opacity:1;stroke:none"
       id="path12"
       stroke-miterlimit="10"
       d="m 110.048,107.92 c 1.18,-4.969 5.21,-8.482 9.794,-10.328 5.316,0.991 9.658,4.857 11.704,9.801 3.439,7.744 3.975,16.316 4.632,24.649 3.429,33.549 5.082,67.241 6.686,100.919 0.028,3.651 0.232,7.327 -0.296,10.959 -2.331,-3.63 -3.371,-7.874 -4.664,-11.938 -2.871,-9.771 -5.881,-19.506 -8.731,-29.279 -4.549,-21.354 -11.446,-42.123 -15.617,-63.566 -1.9,-10.251 -6.092,-20.709 -3.508,-31.217 z"
       inkscape:connector-curvature="0" /><path
       style="fill:#ffffff;fill-opacity:1;stroke:none"
       id="path14"
       d="m 110.048,107.92 c 1.18,-4.969 5.21,-8.482 9.794,-10.328 5.316,0.991 9.658,4.857 11.704,9.801 3.439,7.744 3.975,16.316 4.632,24.649 3.429,33.549 5.082,67.241 6.686,100.919 0.028,3.651 0.232,7.327 -0.296,10.959 -2.331,-3.63 -3.371,-7.874 -4.664,-11.938 -2.871,-9.771 -5.881,-19.506 -8.731,-29.279 -4.549,-21.354 -11.446,-42.123 -15.617,-63.566 -1.9,-10.251 -6.092,-20.709 -3.508,-31.217 z"
       inkscape:connector-curvature="0" /><path
       style="fill:#ffffff;fill-opacity:1;stroke:none"
       id="path16"
       stroke-miterlimit="10"
       d="m 136.775,112.068 c -0.742,-4.646 1.814,-9.226 5.287,-12.149 10.848,-1.535 21.868,2.165 30.747,8.34 7.768,4.9 17.076,10.737 18.271,20.725 0.145,8.936 -4.827,17.08 -10.691,23.488 -8.126,8.824 -16.716,17.203 -24.873,26.001 -2.732,2.657 -5.144,5.935 -8.848,7.286 0.343,-2.379 0.85,-4.766 1.981,-6.905 7.878,-15.353 15.36,-30.902 22.898,-46.419 -8.991,-3.452 -18.414,-6.131 -26.653,-11.257 -3.381,-2.276 -7.089,-4.917 -8.119,-9.11 z"
       inkscape:connector-curvature="0" /><path
       style="fill:#ffffff;fill-opacity:1;stroke:none"
       id="path18"
       d="m 136.775,112.068 c -0.742,-4.646 1.814,-9.226 5.287,-12.149 10.848,-1.535 21.868,2.165 30.747,8.34 7.768,4.9 17.076,10.737 18.271,20.725 0.145,8.936 -4.827,17.08 -10.691,23.488 -8.126,8.824 -16.716,17.203 -24.873,26.001 -2.732,2.657 -5.144,5.935 -8.848,7.286 0.343,-2.379 0.85,-4.766 1.981,-6.905 7.878,-15.353 15.36,-30.902 22.898,-46.419 -8.991,-3.452 -18.414,-6.131 -26.653,-11.257 -3.381,-2.276 -7.089,-4.917 -8.119,-9.11 z"
       inkscape:connector-curvature="0" /><path
       style="fill:#ffffff;fill-opacity:1;stroke:#ffffff;stroke-width:0.1;stroke-miterlimit:10;stroke-opacity:1"
       id="path20"
       stroke-miterlimit="10"
       d="m 64.514,138.045 c 12.583,-2.521 26.361,0.793 36.045,9.318 7.17,6.498 12.428,15.096 14.596,24.557 4.04,14.321 1.652,29.748 -3.938,43.313 -6.007,12.451 -14.901,24.017 -27.115,30.884 -10.8,7.015 -24.468,9.28 -36.977,6.298 -12.244,-3.168 -22.577,-12.379 -27.747,-23.841 -9.032,-19.425 -6.12,-43.217 5.302,-61.021 8.558,-14.684 23.14,-25.865 39.834,-29.508 z"
       inkscape:connector-curvature="0" /><path
       style="fill:#ffffff;fill-opacity:1;stroke:#ffffff;stroke-opacity:1"
       id="path22"
       d="m 72.881,137.222 c 10.043,0 20.11,3.48 27.678,10.142 7.17,6.498 12.428,15.096 14.596,24.557 4.04,14.321 1.652,29.748 -3.938,43.313 -6.007,12.451 -14.901,24.017 -27.115,30.884 -7.688,4.993 -16.831,7.581 -25.973,7.581 -3.701,0 -7.399,-0.424 -11.004,-1.283 -12.244,-3.168 -22.577,-12.379 -27.747,-23.841 -9.032,-19.425 -6.12,-43.217 5.302,-61.021 8.557,-14.683 23.139,-25.864 39.833,-29.507 2.751,-0.553 5.559,-0.825 8.368,-0.825 m 0.001,6 0,0 c -2.413,0 -4.814,0.234 -7.137,0.696 -14.607,3.203 -28.017,13.165 -35.88,26.656 l -0.065,0.11 -0.069,0.107 c -10.779,16.802 -12.707,38.489 -4.912,55.253 l 0.015,0.03 0.014,0.032 c 4.511,9.999 13.597,17.843 23.723,20.484 3.099,0.733 6.314,1.106 9.559,1.106 8.076,0 16.14,-2.349 22.705,-6.613 l 0.161,-0.104 0.167,-0.095 c 12.421,-6.983 20.21,-19.104 24.575,-28.103 3.991,-9.743 7.826,-24.404 3.644,-39.234 l -0.041,-0.144 -0.033,-0.145 c -1.838,-8.021 -6.364,-15.627 -12.744,-21.422 -6.239,-5.474 -14.869,-8.614 -23.682,-8.614 z"
       inkscape:connector-curvature="0" /><path
       style="fill:#ffffff;fill-opacity:1;stroke:#ffffff;stroke-width:0.1;stroke-miterlimit:10;stroke-opacity:1"
       id="path24"
       stroke-miterlimit="10"
       d="m 231.59,140.027 c 11.42,-2.241 23.822,0.245 33.242,7.158 9.621,7.171 15.92,18.22 18.1,29.95 4.98,24.621 -5.76,51.086 -25.215,66.619 -9.412,7.019 -20.677,12.328 -32.666,11.896 -14.442,0.529 -28.359,-7.696 -35.852,-19.861 -8.729,-14.139 -10.19,-32.006 -5.615,-47.801 2.17,-9.383 7.209,-17.825 12.893,-25.477 8.658,-11.251 21.222,-19.42 35.113,-22.484 z"
       inkscape:connector-curvature="0" /><path
       style="fill:#ffffff;fill-opacity:1;stroke:#ffffff;stroke-opacity:1"
       id="path26"
       d="m 239.888,139.226 c 8.878,0 17.774,2.697 24.944,7.959 9.621,7.171 15.92,18.22 18.1,29.95 4.98,24.621 -5.76,51.086 -25.215,66.619 -9.053,6.751 -19.821,11.921 -31.299,11.921 -0.455,0 -0.91,-0.008 -1.367,-0.024 -0.439,0.017 -0.881,0.024 -1.319,0.024 -13.966,0 -27.269,-8.091 -34.532,-19.886 -8.729,-14.139 -10.19,-32.006 -5.615,-47.801 2.17,-9.383 7.209,-17.825 12.893,-25.477 8.658,-11.252 21.223,-19.421 35.113,-22.485 2.726,-0.534 5.512,-0.8 8.297,-0.8 m 0.001,6 c -2.39,0 -4.771,0.227 -7.078,0.676 -12.236,2.718 -23.73,10.087 -31.55,20.231 -6.405,8.632 -10.166,16.008 -11.831,23.207 l -0.037,0.16 -0.046,0.158 c -4.314,14.896 -2.461,30.963 4.958,42.979 6.375,10.353 17.925,17.038 29.427,17.038 0.365,0 0.732,-0.007 1.099,-0.021 l 0.219,-0.008 0.219,0.008 c 0.385,0.014 0.768,0.021 1.15,0.021 8.815,0 18.112,-3.591 27.634,-10.673 18.158,-14.548 27.4,-38.919 22.999,-60.678 l -0.01,-0.047 -0.009,-0.047 c -1.983,-10.674 -7.737,-20.236 -15.786,-26.235 -5.936,-4.356 -13.534,-6.769 -21.358,-6.769 z"
       inkscape:connector-curvature="0" /></g></svg>