<?xml version="1.0" encoding="UTF-8" standalone="no"?>
<svg
   xmlns:dc="http://purl.org/dc/elements/1.1/"
   xmlns:cc="http://creativecommons.org/ns#"
   xmlns:rdf="http://www.w3.org/1999/02/22-rdf-syntax-ns#"
   xmlns:svg="http://www.w3.org/2000/svg"
   xmlns="http://www.w3.org/2000/svg"
   xmlns:sodipodi="http://sodipodi.sourceforge.net/DTD/sodipodi-0.dtd"
   xmlns:inkscape="http://www.inkscape.org/namespaces/inkscape"
   enable-background="new 0 0 300 300"
   viewBox="-52223.999 0 0 51"
   xml:space="preserve"
   id="svg2"
   version="1.1"
   inkscape:version="0.91 r13725"
   width="1024"
   height="1024"
   sodipodi:docname="mountain_bike.svg"><metadata
     id="metadata32"><rdf:RDF><cc:Work
         rdf:about=""><dc:format>image/svg+xml</dc:format><dc:type
           rdf:resource="http://purl.org/dc/dcmitype/StillImage" /><dc:title /></cc:Work></rdf:RDF></metadata><defs
     id="defs30" /><sodipodi:namedview
     pagecolor="#ffffff"
     bordercolor="#666666"
     borderopacity="1"
     objecttolerance="10"
     gridtolerance="10"
     guidetolerance="10"
     inkscape:pageopacity="0"
     inkscape:pageshadow="2"
     inkscape:window-width="1366"
     inkscape:window-height="670"
     id="namedview28"
     showgrid="false"
     inkscape:zoom="0.39333335"
     inkscape:cx="310.84203"
     inkscape:cy="431.46371"
     inkscape:window-x="0"
     inkscape:window-y="28"
     inkscape:window-maximized="1"
     inkscape:current-layer="svg2"
     fit-margin-top="3"
     fit-margin-left="3"
     fit-margin-right="3"
     fit-margin-bottom="3" /><g
     id="g6361"
     transform="matrix(0.99058789,0,0,0.99058789,2.5153641,4.6281179)"><rect
       ry="99.271454"
       y="13.715156"
       x="13.630436"
       height="1001.7391"
       width="1001.7391"
       id="rect3777"
       style="fill:none;fill-opacity:1;stroke:#ff4081;stroke-width:33;stroke-miterlimit:4;stroke-dasharray:none;stroke-opacity:1" /><path
       inkscape:connector-curvature="0"
       style="fill:#3f51b5;fill-opacity:1;stroke:#000000;stroke-width:0.33218494;stroke-miterlimit:10"
       id="path4"
       stroke-miterlimit="10"
       d="m 625.5885,40.852706 c 23.87164,-2.292487 49.11491,7.673972 64.09401,26.950937 10.49827,12.021328 15.1143,28.011839 16.86512,43.677717 -0.83077,20.06009 -8.81009,40.07333 -23.64743,53.67764 -19.83588,18.9925 -50.87889,24.98308 -76.16833,14.52132 -36.53285,-12.75426 -58.09315,-60.07653 -39.94212,-95.72218 10.09268,-23.97907 33.60492,-40.029821 58.79875,-43.105434 z" /><path
       inkscape:connector-curvature="0"
       style="fill:#3f51b5;fill-opacity:1"
       id="path6"
       d="m 625.5885,40.852706 c 23.87164,-2.292487 49.11491,7.673972 64.09401,26.950937 10.49827,12.021328 15.1143,28.011839 16.86512,43.677717 -0.83077,20.06009 -8.81009,40.07333 -23.64743,53.67764 -19.83588,18.9925 -50.87889,24.98308 -76.16833,14.52132 -36.53285,-12.75426 -58.09315,-60.07653 -39.94212,-95.72218 10.09268,-23.97907 33.60492,-40.029821 58.79875,-43.105434 z" /><path
       inkscape:connector-curvature="0"
       style="fill:#3f51b5;fill-opacity:1;stroke:#000000;stroke-width:0.33218494;stroke-miterlimit:10"
       id="path8"
       stroke-miterlimit="10"
       d="m 484.83152,184.88778 c 3.12576,-15.72278 20.26784,-19.65515 33.12685,-23.7515 12.88542,2.99864 25.14105,9.62175 33.10706,20.58887 11.41486,16.24819 19.71389,34.43748 28.99218,51.95743 14.7714,25.05336 35.65249,46.23794 60.0385,61.67626 25.57297,15.28102 51.89443,29.49776 79.79524,39.93945 23.077,10.35469 48.88412,9.03609 73.31958,13.44033 l -0.28026,4.21683 c -36.1009,0.48863 -72.60407,3.59436 -108.33571,-3.21282 -39.91904,-6.56956 -79.78865,-18.00857 -114.21456,-40.1369 -26.1467,-18.77498 -48.39283,-42.82767 -66.87688,-69.27325 -10.39603,-16.34526 -22.49672,-35.08342 -18.67197,-55.4447 z" /><path
       inkscape:connector-curvature="0"
       style="fill:#3f51b5;fill-opacity:1"
       id="path10"
       d="m 484.83152,184.88778 c 3.12576,-15.72278 20.26784,-19.65515 33.12685,-23.7515 12.88542,2.99864 25.14105,9.62175 33.10706,20.58887 11.41486,16.24819 19.71389,34.43748 28.99218,51.95743 14.7714,25.05336 35.65249,46.23794 60.0385,61.67626 25.57297,15.28102 51.89443,29.49776 79.79524,39.93945 23.077,10.35469 48.88412,9.03609 73.31958,13.44033 l -0.28026,4.21683 c -36.1009,0.48863 -72.60407,3.59436 -108.33571,-3.21282 -39.91904,-6.56956 -79.78865,-18.00857 -114.21456,-40.1369 -26.1467,-18.77498 -48.39283,-42.82767 -66.87688,-69.27325 -10.39603,-16.34526 -22.49672,-35.08342 -18.67197,-55.4447 z" /><path
       inkscape:connector-curvature="0"
       style="fill:#3f51b5;fill-opacity:1;stroke:#000000;stroke-width:0.33218494;stroke-miterlimit:10"
       id="path12"
       stroke-miterlimit="10"
       d="m 342.36336,341.38592 c 5.3711,-9.54477 14.94615,-15.12706 24.16179,-20.1906 13.4756,1.85076 26.48959,8.82523 33.29828,21.16786 17.80155,30.68583 18.75772,67.3857 21.91313,101.90018 8.6782,86.32798 13.56135,172.97726 17.77845,259.6299 1.28267,32.4027 4.6787,64.77194 3.0301,97.23488 -4.66884,-2.88485 -6.35699,-8.24625 -8.10449,-13.14246 C 410.21289,716.74457 392.5004,643.52557 374.26036,570.54086 359.3076,518.37925 349.29404,464.97269 337.2593,412.08487 c -4.8106,-23.1859 -8.16714,-49.66496 5.10406,-70.69895 z" /><path
       inkscape:connector-curvature="0"
       style="fill:#3f51b5;fill-opacity:1"
       id="path14"
       d="m 342.36336,341.38592 c 5.3711,-9.54477 14.94615,-15.12706 24.16179,-20.1906 13.4756,1.85076 26.48959,8.82523 33.29828,21.16786 17.80155,30.68583 18.75772,67.3857 21.91313,101.90018 8.6782,86.32798 13.56135,172.97726 17.77845,259.6299 1.28267,32.4027 4.6787,64.77194 3.0301,97.23488 -4.66884,-2.88485 -6.35699,-8.24625 -8.10449,-13.14246 C 410.21289,716.74457 392.5004,643.52557 374.26036,570.54086 359.3076,518.37925 349.29404,464.97269 337.2593,412.08487 c -4.8106,-23.1859 -8.16714,-49.66496 5.10406,-70.69895 z" /><path
       inkscape:connector-curvature="0"
       style="fill:#3f51b5;fill-opacity:1;stroke:#000000;stroke-width:0.33218494;stroke-miterlimit:10"
       id="path16"
       stroke-miterlimit="10"
       d="m 440.27996,327.62432 c 20.07656,-0.16473 40.74992,-0.098 59.73183,7.46647 25.37187,9.97986 47.95759,25.82647 69.9894,41.76676 19.22262,14.99655 35.28651,40.45152 27.33699,65.77261 -6.57129,29.2635 -26.32806,52.72719 -46.36836,73.74777 -26.46651,26.64974 -52.42529,53.81152 -77.79711,81.53888 -5.05794,5.17734 -10.07625,11.23486 -17.55755,12.5568 -0.55051,-11.22816 4.77762,-21.30172 9.72671,-30.93685 14.41199,-26.02725 26.06095,-53.48688 39.22002,-80.17007 9.25852,-22.09156 23.43315,-41.827 30.84192,-64.72845 -28.10523,-8.79177 -56.21045,-18.59423 -82.02084,-33.07204 -13.73939,-9.00594 -30.64736,-20.28432 -30.73638,-38.88524 -1.22992,-14.23685 8.48034,-25.6223 17.63337,-35.05664 z" /><path
       inkscape:connector-curvature="0"
       style="fill:#3f51b5;fill-opacity:1"
       id="path18"
       d="m 440.27996,327.62432 c 20.07656,-0.16473 40.74992,-0.098 59.73183,7.46647 25.37187,9.97986 47.95759,25.82647 69.9894,41.76676 19.22262,14.99655 35.28651,40.45152 27.33699,65.77261 -6.57129,29.2635 -26.32806,52.72719 -46.36836,73.74777 -26.46651,26.64974 -52.42529,53.81152 -77.79711,81.53888 -5.05794,5.17734 -10.07625,11.23486 -17.55755,12.5568 -0.55051,-11.22816 4.77762,-21.30172 9.72671,-30.93685 14.41199,-26.02725 26.06095,-53.48688 39.22002,-80.17007 9.25852,-22.09156 23.43315,-41.827 30.84192,-64.72845 -28.10523,-8.79177 -56.21045,-18.59423 -82.02084,-33.07204 -13.73939,-9.00594 -30.64736,-20.28432 -30.73638,-38.88524 -1.22992,-14.23685 8.48034,-25.6223 17.63337,-35.05664 z" /><path
       inkscape:connector-curvature="0"
       style="fill:#3f51b5;fill-opacity:1"
       id="path20"
       d="m 786.86055,411.52596 c 19.51931,0 38.88703,5.3815 57.14023,12.1619 41.10276,18.77831 70.53014,58.60732 80.6723,102.79041 23.85185,94.08563 -23.65732,200.08885 -106.75305,247.10992 -24.47832,13.87541 -52.5143,21.49581 -80.5437,21.49581 -8.25943,0 -16.50902,-0.65936 -24.67613,-2.01794 -40.12019,-7.32928 -75.65399,-34.38397 -94.73483,-70.80604 -18.7412,-31.57273 -23.60455,-69.25317 -21.89,-105.50791 5.20294,-69.19293 41.66324,-135.96953 98.78704,-174.73096 23.00777,-15.78302 49.60619,-26.41882 77.29595,-29.41411 4.89632,-0.74285 9.80585,-1.08099 14.70219,-1.08099 m 0.007,20.08018 -0.007,0 c -4.04566,0 -8.0122,0.28783 -11.79076,0.86016 l -0.40559,0.0645 -0.40893,0.0445 c -23.53203,2.54682 -47.15309,11.56617 -68.31774,26.08413 -50.74372,34.43414 -85.22572,95.4511 -90.11541,159.34287 -1.76061,38.0017 4.6622,69.59451 19.08743,93.89822 l 0.27358,0.46191 0.24732,0.47527 c 16.30789,31.13096 47.18274,54.28006 80.60632,60.44467 6.9604,1.14799 14.13837,1.73034 21.33941,1.73034 24.51789,0 49.0325,-6.55282 70.89615,-18.94563 36.74056,-20.78967 66.93621,-55.05983 85.04436,-96.51536 18.22357,-41.71654 22.55607,-87.19814 12.19628,-128.06129 l -0.0601,-0.22038 -0.0534,-0.22417 c -8.99989,-39.2228 -35.36422,-73.15496 -68.89002,-88.74721 -19.76334,-7.2958 -35.55687,-10.69269 -49.64246,-10.69269 z" /><path
       inkscape:connector-curvature="0"
       style="fill:#3f51b5;fill-opacity:1"
       id="path22"
       d="m 238.49534,517.16775 c 29.7769,0 59.61316,9.46779 83.19464,28.07877 35.22386,27.06138 55.3466,71.04031 59.18123,115.11294 8.54631,88.85475 -39.29589,181.54147 -118.31298,221.98295 -22.31537,11.69668 -47.64768,18.02195 -72.86786,18.02195 -19.92161,0 -39.77397,-3.94576 -58.02061,-12.30247 C 106.89799,874.5948 83.781403,855.86001 70.464062,830.21428 48.016806,793.60143 44.195367,748.77915 48.511385,706.77478 c 7.49121,-44.55792 24.844311,-88.46321 55.640045,-121.75948 28.38549,-32.73067 66.43833,-58.23584 109.30177,-65.58184 8.24957,-1.50929 16.6475,-2.26571 25.04214,-2.26571 m 0.01,20.08017 -0.007,0 c -7.24393,0 -14.48455,0.65603 -21.51744,1.94783 l -0.11576,0.0201 -0.11576,0.0201 c -35.24363,6.04077 -69.95973,27.00782 -97.74513,59.05243 l -0.20769,0.23752 -0.21771,0.23419 c -25.331535,27.39282 -42.77036,65.67232 -50.452806,110.75232 -4.523743,44.96284 1.915659,82.00406 19.136875,110.09287 l 0.37258,0.6124 0.329706,0.63243 c 9.845402,18.95566 27.488655,35.50175 52.445065,49.17967 15.08794,6.80384 31.6662,10.25093 49.28307,10.25093 22.0351,0 44.09331,-5.45845 63.79071,-15.783 l 0.0868,-0.0467 0.0868,-0.0445 c 34.37648,-17.59359 64.01819,-47.56658 83.4617,-84.39363 19.30503,-36.55929 27.85133,-78.36287 24.06616,-117.70996 l -0.007,-0.0913 -0.007,-0.0935 C 357.5885,620.93697 338.3692,583.22975 309.75619,561.24866 l -0.1024,-0.0779 -0.1024,-0.0779 c -19.49146,-15.37442 -44.72484,-23.84491 -71.0463,-23.84491 z" /><path
       inkscape:connector-curvature="0"
       style="fill:#3f51b5;fill-opacity:1;stroke:#000000;stroke-width:0.3272239;stroke-miterlimit:10"
       id="path24"
       stroke-miterlimit="10"
       d="m 945.42324,699.52584 c 11.97871,-14.78572 29.07011,-23.1993 45.656,-30.92347 l 0,22.5199 c -12.78493,6.90759 -26.2514,14.09963 -34.49318,26.99444 -14.14787,21.46571 -29.6236,44.88255 -54.38406,53.57724 -21.5706,7.87478 -38.66201,24.18323 -57.5419,37.00108 -12.13867,8.15924 -22.97199,19.36062 -37.40144,22.93825 -34.88032,10.09363 -71.63867,0.0846 -106.77493,8.22283 -31.41207,6.40223 -55.76622,31.35517 -86.87114,38.71457 -17.68334,5.39152 -36.32646,4.27373 -54.4961,3.45044 -32.66627,-2.02819 -64.96461,-14.53804 -97.81003,-7.26902 -49.97525,11.26831 -84.51642,58.49353 -135.14113,68.06842 -15.9716,3.97588 -32.43271,2.60374 -48.41392,-0.41161 -37.13908,-5.20076 -74.49574,-8.49056 -111.78842,-12.24221 -45.82877,-4.13317 -94.751392,0.27782 -134.709195,26.06405 l 0,-24.40074 c 28.977324,-14.02602 60.619781,-22.69395 92.649375,-22.96502 34.2244,-1.34879 68.27282,3.2396 102.27648,6.54612 22.46327,3.37348 45.18888,4.33397 67.56256,8.44036 11.65876,2.36277 23.66945,0.512 34.96028,-2.89153 46.62864,-13.00861 79.24052,-56.87374 127.31848,-66.1742 50.36558,-11.93098 100.56161,16.83051 150.78959,4.34401 25.2244,-5.3815 45.22412,-23.7448 69.04071,-32.99842 37.25428,-17.279 78.78621,-4.94977 117.69458,-12.27903 6.95238,-1.32519 13.93359,-3.38686 19.69573,-7.85134 19.58698,-14.09628 39.22835,-28.10889 58.83775,-42.17841 11.32918,-8.22951 25.20193,-11.24154 36.7967,-18.93558 15.48849,-11.86739 24.61011,-30.08346 36.54721,-45.36111 z" /></g></svg>