<?xml version="1.0" encoding="UTF-8" standalone="no"?>
<svg
   xmlns:dc="http://purl.org/dc/elements/1.1/"
   xmlns:cc="http://creativecommons.org/ns#"
   xmlns:rdf="http://www.w3.org/1999/02/22-rdf-syntax-ns#"
   xmlns:svg="http://www.w3.org/2000/svg"
   xmlns="http://www.w3.org/2000/svg"
   xmlns:sodipodi="http://sodipodi.sourceforge.net/DTD/sodipodi-0.dtd"
   xmlns:inkscape="http://www.inkscape.org/namespaces/inkscape"
   enable-background="new 0 0 300 300"
   viewBox="0 0 50.999999 51"
   xml:space="preserve"
   id="svg2"
   version="1.1"
   inkscape:version="0.48.5 r10040"
   width="100%"
   height="100%"
   sodipodi:docname="mountain_bike.svg"><metadata
     id="metadata32"><rdf:RDF><cc:Work
         rdf:about=""><dc:format>image/svg+xml</dc:format><dc:type
           rdf:resource="http://purl.org/dc/dcmitype/StillImage" /></cc:Work></rdf:RDF></metadata><defs
     id="defs30" /><sodipodi:namedview
     pagecolor="#ffffff"
     bordercolor="#666666"
     borderopacity="1"
     objecttolerance="10"
     gridtolerance="10"
     guidetolerance="10"
     inkscape:pageopacity="0"
     inkscape:pageshadow="2"
     inkscape:window-width="1326"
     inkscape:window-height="715"
     id="namedview28"
     showgrid="false"
     inkscape:zoom="1.1125147"
     inkscape:cx="167.93502"
     inkscape:cy="171.00596"
     inkscape:window-x="40"
     inkscape:window-y="31"
     inkscape:window-maximized="1"
     inkscape:current-layer="svg2"
     fit-margin-top="3"
     fit-margin-left="3"
     fit-margin-right="3"
     fit-margin-bottom="3" /><g
     id="g3092"
     transform="matrix(0.14986645,0,0,0.15033982,3,3.0331891)"><rect
       ry="29.662531"
       y="-0.22076057"
       x="0"
       height="299.3219"
       width="300.26733"
       id="rect3777"
       style="fill:#000000;fill-opacity:1;stroke:none" /><path
       inkscape:connector-curvature="0"
       style="fill:#ffffff;fill-opacity:1;stroke:#000000;stroke-width:0.09941424;stroke-miterlimit:10"
       id="path4"
       stroke-miterlimit="10"
       d="m 183.432,7.888 c 7.15543,-0.685 14.722,2.293 19.21193,8.053 3.14681,3.592 4.53045,8.37 5.05525,13.051 -0.24905,5.994 -2.64079,11.974 -7.08822,16.039 -5.94573,5.675 -15.25075,7.465 -22.83116,4.339 C 166.82923,45.559 160.36661,31.419 165.80731,20.768 168.83255,13.603 175.88025,8.807 183.432,7.888 z" /><path
       inkscape:connector-curvature="0"
       style="fill:#ffffff;fill-opacity:1"
       id="path6"
       d="m 183.432,7.888 c 7.15543,-0.685 14.722,2.293 19.21193,8.053 3.14681,3.592 4.53045,8.37 5.05525,13.051 -0.24905,5.994 -2.64079,11.974 -7.08822,16.039 -5.94573,5.675 -15.25075,7.465 -22.83116,4.339 C 166.82923,45.559 160.36661,31.419 165.80731,20.768 168.83255,13.603 175.88025,8.807 183.432,7.888 z" /><path
       inkscape:connector-curvature="0"
       style="fill:#ffffff;fill-opacity:1;stroke:#000000;stroke-width:0.09941424;stroke-miterlimit:10"
       id="path8"
       stroke-miterlimit="10"
       d="m 141.24066,50.926 c 0.93693,-4.698 6.0752,-5.873 9.92964,-7.097 3.86235,0.896 7.53593,2.875 9.92371,6.152 3.42156,4.855 5.90916,10.29 8.69029,15.525 4.42767,7.486 10.68669,13.816 17.9963,18.429 7.6654,4.566 15.55515,8.814 23.91831,11.934 6.91724,3.094 14.65282,2.7 21.97725,4.016 l -0.084,1.26 c -10.8211,0.146 -21.76278,1.074 -32.4732,-0.96 -11.96557,-1.963 -23.91633,-5.381 -34.23536,-11.993 -7.83737,-5.61 -14.50556,-12.797 -20.04608,-20.699 -3.11617,-4.884 -6.7433,-10.483 -5.59685,-16.567 z" /><path
       inkscape:connector-curvature="0"
       style="fill:#ffffff;fill-opacity:1"
       id="path10"
       d="m 141.24066,50.926 c 0.93693,-4.698 6.0752,-5.873 9.92964,-7.097 3.86235,0.896 7.53593,2.875 9.92371,6.152 3.42156,4.855 5.90916,10.29 8.69029,15.525 4.42767,7.486 10.68669,13.816 17.9963,18.429 7.6654,4.566 15.55515,8.814 23.91831,11.934 6.91724,3.094 14.65282,2.7 21.97725,4.016 l -0.084,1.26 c -10.8211,0.146 -21.76278,1.074 -32.4732,-0.96 -11.96557,-1.963 -23.91633,-5.381 -34.23536,-11.993 -7.83737,-5.61 -14.50556,-12.797 -20.04608,-20.699 -3.11617,-4.884 -6.7433,-10.483 -5.59685,-16.567 z" /><path
       inkscape:connector-curvature="0"
       style="fill:#ffffff;fill-opacity:1;stroke:#000000;stroke-width:0.09941424;stroke-miterlimit:10"
       id="path12"
       stroke-miterlimit="10"
       d="m 98.536388,97.688 c 1.609972,-2.852 4.480052,-4.52 7.242402,-6.033 4.03926,0.553 7.94015,2.637 9.98103,6.325 5.33594,9.169 5.62255,20.135 6.56837,30.448 2.60126,25.795 4.06496,51.686 5.32902,77.578 0.38445,9.682 1.40242,19.354 0.90826,29.054 -1.39946,-0.862 -1.90548,-2.464 -2.42929,-3.927 -7.26216,-21.287 -12.57141,-43.165 -18.03879,-64.973 -4.48203,-15.586 -7.48356,-31.544 -11.090919,-47.347 -1.441958,-6.928 -2.448067,-14.84 1.529917,-21.125 z" /><path
       inkscape:connector-curvature="0"
       style="fill:#ffffff;fill-opacity:1"
       id="path14"
       d="m 98.536388,97.688 c 1.609972,-2.852 4.480052,-4.52 7.242402,-6.033 4.03926,0.553 7.94015,2.637 9.98103,6.325 5.33594,9.169 5.62255,20.135 6.56837,30.448 2.60126,25.795 4.06496,51.686 5.32902,77.578 0.38445,9.682 1.40242,19.354 0.90826,29.054 -1.39946,-0.862 -1.90548,-2.464 -2.42929,-3.927 -7.26216,-21.287 -12.57141,-43.165 -18.03879,-64.973 -4.48203,-15.586 -7.48356,-31.544 -11.090919,-47.347 -1.441958,-6.928 -2.448067,-14.84 1.529917,-21.125 z" /><path
       inkscape:connector-curvature="0"
       style="fill:#ffffff;fill-opacity:1;stroke:#000000;stroke-width:0.09941424;stroke-miterlimit:10"
       id="path16"
       stroke-miterlimit="10"
       d="m 127.8865,93.576 c 6.01787,-0.049 12.21463,-0.029 17.90438,2.231 7.60512,2.982 14.3751,7.717 20.97905,12.48 5.7619,4.481 10.57699,12.087 8.19415,19.653 -1.96972,8.744 -7.89173,15.755 -13.89873,22.036 -7.93323,7.963 -15.71427,16.079 -23.31938,24.364 -1.51609,1.547 -3.02031,3.357 -5.2628,3.752 -0.16505,-3.355 1.43207,-6.365 2.91554,-9.244 4.31994,-7.777 7.81167,-15.982 11.75605,-23.955 2.7752,-6.601 7.02399,-12.498 9.24474,-19.341 -8.42443,-2.627 -16.84886,-5.556 -24.58542,-9.882 -4.11833,-2.691 -9.18643,-6.061 -9.21311,-11.619 -0.36865,-4.254 2.54195,-7.656 5.28553,-10.475 z" /><path
       inkscape:connector-curvature="0"
       style="fill:#ffffff;fill-opacity:1"
       id="path18"
       d="m 127.8865,93.576 c 6.01787,-0.049 12.21463,-0.029 17.90438,2.231 7.60512,2.982 14.3751,7.717 20.97905,12.48 5.7619,4.481 10.57699,12.087 8.19415,19.653 -1.96972,8.744 -7.89173,15.755 -13.89873,22.036 -7.93323,7.963 -15.71427,16.079 -23.31938,24.364 -1.51609,1.547 -3.02031,3.357 -5.2628,3.752 -0.16505,-3.355 1.43207,-6.365 2.91554,-9.244 4.31994,-7.777 7.81167,-15.982 11.75605,-23.955 2.7752,-6.601 7.02399,-12.498 9.24474,-19.341 -8.42443,-2.627 -16.84886,-5.556 -24.58542,-9.882 -4.11833,-2.691 -9.18643,-6.061 -9.21311,-11.619 -0.36865,-4.254 2.54195,-7.656 5.28553,-10.475 z" /><path
       inkscape:connector-curvature="0"
       style="fill:#ffffff;fill-opacity:1"
       id="path20"
       d="m 231.77266,118.646 c 5.85084,0 11.65623,1.608 17.12756,3.634 12.32039,5.611 21.14113,17.512 24.1812,30.714 7.1495,28.113 -7.09119,59.787 -31.9988,73.837 -7.33728,4.146 -15.74096,6.423 -24.14266,6.423 -2.47573,0 -4.94851,-0.197 -7.39657,-0.603 -12.02587,-2.19 -22.67698,-10.274 -28.39639,-21.157 -5.6176,-9.434 -7.07537,-20.693 -6.56144,-31.526 1.55956,-20.675 12.48839,-40.628 29.61102,-52.21 6.89649,-4.716 14.86926,-7.894 23.16916,-8.789 1.46765,-0.222 2.93926,-0.323 4.40692,-0.323 m 0.002,6 h -0.002 c -1.21267,0 -2.40162,0.086 -3.53423,0.257 l -0.12157,0.019 -0.12255,0.013 c -7.05363,0.761 -14.13395,3.456 -20.47797,7.794 -15.21023,10.289 -25.54607,28.521 -27.01174,47.612 -0.52776,11.355 1.39748,20.795 5.72138,28.057 l 0.082,0.138 0.0741,0.142 c 4.88823,9.302 14.14284,16.219 24.16143,18.061 2.08635,0.343 4.23792,0.517 6.3964,0.517 7.34914,0 14.6973,-1.958 21.25084,-5.661 11.01284,-6.212 20.06386,-16.452 25.49171,-28.839 5.46244,-12.465 6.76109,-26.055 3.65579,-38.265 l -0.0178,-0.066 -0.0158,-0.067 c -2.69811,-11.719 -10.60071,-21.858 -20.64994,-26.517 -5.92398,-2.18 -10.65803,-3.195 -14.88013,-3.195 z" /><path
       inkscape:connector-curvature="0"
       style="fill:#ffffff;fill-opacity:1"
       id="path22"
       d="m 67.402365,150.212 c 8.925508,0 17.868806,2.829 24.937263,8.39 10.558212,8.086 16.589922,21.227 17.739342,34.396 2.56172,26.55 -11.77879,54.245 -35.463854,66.329 -6.688942,3.495 -14.282197,5.385 -21.841849,5.385 -5.971423,0 -11.922091,-1.179 -17.391448,-3.676 -7.425241,-4.024 -14.354345,-9.622 -18.346165,-17.285 -6.728476,-10.94 -7.8739373,-24.333 -6.580228,-36.884 2.245461,-13.314 7.446984,-26.433 16.677883,-36.382 8.508438,-9.78 19.914627,-17.401 32.762773,-19.596 2.472774,-0.451 4.990022,-0.677 7.506283,-0.677 m 0.003,6 h -0.002 c -2.171337,0 -4.341685,0.196 -6.44977,0.582 l -0.03459,0.006 -0.03459,0.006 c -10.564141,1.805 -20.970152,8.07 -29.298715,17.645 l -0.06227,0.071 -0.06523,0.07 c -7.593254,8.185 -12.820473,19.623 -15.123256,33.093 -1.355974,13.435 0.574213,24.503 5.736203,32.896 l 0.11168,0.183 0.09883,0.189 c 2.95112,5.664 8.239615,10.608 15.720201,14.695 4.522548,2.033 9.491815,3.063 14.772404,3.063 6.604935,0 13.216789,-1.631 19.121006,-4.716 l 0.0257,-0.014 0.0257,-0.013 c 10.304214,-5.257 19.189201,-14.213 25.017318,-25.217 5.786604,-10.924 8.348324,-23.415 7.213734,-35.172 l -0.002,-0.027 -0.002,-0.028 c -1.0743,-12.305 -6.835211,-23.572 -15.411843,-30.14 l -0.03064,-0.023 -0.03064,-0.023 c -5.841953,-4.595 -13.405558,-7.126 -21.295309,-7.126 z" /><path
       inkscape:connector-curvature="0"
       style="fill:#ffffff;fill-opacity:1;stroke:#000000;stroke-width:0.09792953;stroke-miterlimit:10"
       id="path24"
       stroke-miterlimit="10"
       d="m 279.3012,204.701 c 3.59057,-4.418 8.71365,-6.932 13.6852,-9.24 v 6.729 c -3.83223,2.064 -7.86875,4.213 -10.33919,8.066 -4.24077,6.414 -8.87956,13.411 -16.30141,16.009 -6.4657,2.353 -11.58878,7.226 -17.24795,11.056 -3.63852,2.438 -6.88577,5.785 -11.21094,6.854 -10.45523,3.016 -21.4734,0.025 -32.00536,2.457 -9.41564,1.913 -16.7157,9.369 -26.03928,11.568 -5.30051,1.611 -10.88871,1.277 -16.33499,1.031 -9.79158,-0.606 -19.47288,-4.344 -29.31817,-2.172 -14.97988,3.367 -25.33346,17.478 -40.508015,20.339 -4.787424,1.188 -9.721578,0.778 -14.51188,-0.123 C 68.036919,275.721 56.83941,274.738 45.66108,273.617 31.924088,272.382 17.259725,273.7 5.282532,281.405 v -7.291 c 8.685838,-4.191 18.170539,-6.781 27.771282,-6.862 10.258629,-0.403 20.464511,0.968 30.656969,1.956 6.733274,1.008 13.545188,1.295 20.25161,2.522 3.494666,0.706 7.094825,0.153 10.479204,-0.864 13.976753,-3.887 23.752033,-16.994 38.163213,-19.773 15.09688,-3.565 30.14294,5.029 45.19858,1.298 7.56091,-1.608 13.55575,-7.095 20.69468,-9.86 11.16682,-5.163 23.61585,-1.479 35.27848,-3.669 2.08395,-0.396 4.17654,-1.012 5.90372,-2.346 5.87112,-4.212 11.75854,-8.399 17.63638,-12.603 3.39588,-2.459 7.55418,-3.359 11.02967,-5.658 4.64261,-3.546 7.37678,-8.989 10.95488,-13.554 z" /></g></svg>