<?xml version="1.0" encoding="UTF-8" standalone="no"?>
<svg
   xmlns:dc="http://purl.org/dc/elements/1.1/"
   xmlns:cc="http://creativecommons.org/ns#"
   xmlns:rdf="http://www.w3.org/1999/02/22-rdf-syntax-ns#"
   xmlns:svg="http://www.w3.org/2000/svg"
   xmlns="http://www.w3.org/2000/svg"
   xmlns:sodipodi="http://sodipodi.sourceforge.net/DTD/sodipodi-0.dtd"
   xmlns:inkscape="http://www.inkscape.org/namespaces/inkscape"
   enable-background="new 0 0 300 300"
   viewBox="-52275.001 0 0 51"
   xml:space="preserve"
   id="svg2"
   version="1.1"
   inkscape:version="0.91 r13725"
   width="1025"
   height="1025"
   sodipodi:docname="running.svg"><metadata
     id="metadata24"><rdf:RDF><cc:Work
         rdf:about=""><dc:format>image/svg+xml</dc:format><dc:type
           rdf:resource="http://purl.org/dc/dcmitype/StillImage" /><dc:title /></cc:Work></rdf:RDF></metadata><defs
     id="defs22" /><sodipodi:namedview
     pagecolor="#ffffff"
     bordercolor="#666666"
     borderopacity="1"
     objecttolerance="10"
     gridtolerance="10"
     guidetolerance="10"
     inkscape:pageopacity="0"
     inkscape:pageshadow="2"
     inkscape:window-width="1366"
     inkscape:window-height="670"
     id="namedview20"
     showgrid="false"
     inkscape:zoom="0.39333333"
     inkscape:cx="272.47281"
     inkscape:cy="583.96412"
     inkscape:window-x="0"
     inkscape:window-y="28"
     inkscape:window-maximized="1"
     inkscape:current-layer="svg2"
     fit-margin-top="3"
     fit-margin-left="3"
     fit-margin-right="3"
     fit-margin-bottom="3" /><g
     id="g6384"
     transform="matrix(0.98894096,0,0,0.98894096,5.0172412,6.3463942)"><rect
       ry="102.24078"
       y="13.684137"
       x="10.395982"
       height="1003.4623"
       width="1003.4623"
       id="rect3769"
       style="fill:none;fill-opacity:1;stroke:#ff4081;stroke-width:33;stroke-miterlimit:4;stroke-dasharray:none;stroke-opacity:1" /><path
       style="fill:#3f51b5;fill-opacity:1;stroke:none;stroke-miterlimit:10"
       id="path4"
       stroke-miterlimit="10"
       d="m 372.28722,183.35957 c 33.76187,-13.5066 71.08852,-4.24464 103.02462,9.93428 35.63438,16.78123 72.03979,41.19546 86.65936,79.52437 6.55879,15.64064 2.25302,33.89027 -9.0154,46.14923 -8.8652,7.58953 -21.47542,5.47222 -32.09965,4.39852 -24.11562,-5.1879 -38.88206,-26.68541 -57.62049,-40.76733 -16.24508,-14.32944 -33.53823,-29.84296 -55.52768,-33.80664 -19.61626,-3.24787 -36.65574,9.76034 -49.22925,23.25356 -18.922,23.3907 -30.87468,51.50103 -40.19382,79.88229 -6.05477,24.75207 -18.93869,48.37022 -17.38661,74.49369 -1.84247,-24.09647 -8.70165,-47.55073 -9.3592,-71.76427 -1.22832,-31.22106 2.72364,-62.61605 10.54746,-92.80354 14.34921,-32.35162 36.52557,-64.3721 70.20066,-78.49416 z"
       inkscape:connector-curvature="0" /><path
       style="fill:#3f51b5;fill-opacity:1;stroke:none"
       id="path6"
       d="m 372.28722,183.35957 c 33.76187,-13.5066 71.08852,-4.24464 103.02462,9.93428 35.63438,16.78123 72.03979,41.19546 86.65936,79.52437 6.55879,15.64064 2.25302,33.89027 -9.0154,46.14923 -8.8652,7.58953 -21.47542,5.47222 -32.09965,4.39852 -24.11562,-5.1879 -38.88206,-26.68541 -57.62049,-40.76733 -16.24508,-14.32944 -33.53823,-29.84296 -55.52768,-33.80664 -19.61626,-3.24787 -36.65574,9.76034 -49.22925,23.25356 -18.922,23.3907 -30.87468,51.50103 -40.19382,79.88229 -6.05477,24.75207 -18.93869,48.37022 -17.38661,74.49369 -1.84247,-24.09647 -8.70165,-47.55073 -9.3592,-71.76427 -1.22832,-31.22106 2.72364,-62.61605 10.54746,-92.80354 14.34921,-32.35162 36.52557,-64.3721 70.20066,-78.49416 z"
       inkscape:connector-curvature="0" /><path
       style="fill:#3f51b5;fill-opacity:1;stroke:none;stroke-miterlimit:10"
       id="path8"
       stroke-miterlimit="10"
       d="m 680.11273,204.05096 c 24.44607,-2.84314 50.13714,6.76668 66.54243,25.21032 11.12824,13.72736 18.60158,31.02036 18.48142,48.88533 -2.15622,21.72162 -13.06416,43.18568 -31.2652,55.66875 -21.4554,15.23924 -50.78467,18.41353 -74.92699,7.85041 -35.86803,-13.65712 -56.756,-59.92677 -38.32132,-94.87735 10.37389,-23.77537 34.28925,-39.24541 59.48966,-42.73746 z"
       inkscape:connector-curvature="0" /><path
       style="fill:#3f51b5;fill-opacity:1;stroke:none"
       id="path10"
       d="m 680.11273,204.05096 c 24.44607,-2.84314 50.13714,6.76668 66.54243,25.21032 11.12824,13.72736 18.60158,31.02036 18.48142,48.88533 -2.15622,21.72162 -13.06416,43.18568 -31.2652,55.66875 -21.4554,15.23924 -50.78467,18.41353 -74.92699,7.85041 -35.86803,-13.65712 -56.756,-59.92677 -38.32132,-94.87735 10.37389,-23.77537 34.28925,-39.24541 59.48966,-42.73746 z"
       inkscape:connector-curvature="0" /><path
       style="fill:#3f51b5;fill-opacity:1;stroke:none;stroke-miterlimit:10"
       id="path12"
       stroke-miterlimit="10"
       d="m 934.57679,330.31661 c 1.44527,-0.0803 2.90722,-0.11706 4.38254,-0.0904 -0.61416,12.88446 2.73699,25.75888 0.61416,38.59316 -3.39455,22.0628 -12.25976,42.78429 -21.86262,62.76323 -21.09491,47.15603 -60.98499,86.09705 -109.34975,104.42362 -22.20306,7.84707 -48.545,7.245 -68.55179,-6.15122 -32.35666,-21.16971 -57.80407,-53.46113 -68.9323,-90.73306 -7.0461,-20.12946 -7.28976,-44.30286 4.82313,-62.54581 6.05811,-7.99424 14.23906,-16.92171 25.18372,-16.32298 11.30847,1.04695 21.41534,7.85376 28.24449,16.72437 16.07819,21.14965 19.44269,48.65788 32.69711,71.23913 11.08818,14.56358 29.01885,31.86327 48.84207,23.34387 23.88865,-10.12158 43.99223,-27.33765 63.41825,-44.21923 24.55954,-21.16636 41.65243,-49.42052 55.29738,-78.51423 2.74033,-5.83681 4.65289,-12.05827 5.19361,-18.51054 z"
       inkscape:connector-curvature="0" /><path
       style="fill:#3f51b5;fill-opacity:1;stroke:none"
       id="path14"
       d="m 934.57679,330.31661 c 1.44527,-0.0803 2.90722,-0.11706 4.38254,-0.0904 -0.61416,12.88446 2.73699,25.75888 0.61416,38.59316 -3.39455,22.0628 -12.25976,42.78429 -21.86262,62.76323 -21.09491,47.15603 -60.98499,86.09705 -109.34975,104.42362 -22.20306,7.84707 -48.545,7.245 -68.55179,-6.15122 -32.35666,-21.16971 -57.80407,-53.46113 -68.9323,-90.73306 -7.0461,-20.12946 -7.28976,-44.30286 4.82313,-62.54581 6.05811,-7.99424 14.23906,-16.92171 25.18372,-16.32298 11.30847,1.04695 21.41534,7.85376 28.24449,16.72437 16.07819,21.14965 19.44269,48.65788 32.69711,71.23913 11.08818,14.56358 29.01885,31.86327 48.84207,23.34387 23.88865,-10.12158 43.99223,-27.33765 63.41825,-44.21923 24.55954,-21.16636 41.65243,-49.42052 55.29738,-78.51423 2.74033,-5.83681 4.65289,-12.05827 5.19361,-18.51054 z"
       inkscape:connector-curvature="0" /><path
       style="fill:#3f51b5;fill-opacity:1;stroke:none;stroke-miterlimit:10"
       id="path16"
       stroke-miterlimit="10"
       d="m 337.77101,465.54987 c 14.20902,-12.05826 35.19379,-10.88756 51.71924,-4.85675 16.60223,7.07441 34.09233,12.53994 49.24929,22.60132 23.53484,15.11214 46.02495,32.05727 66.14523,51.52443 22.73377,18.41689 43.84537,38.96111 61.93627,62.01397 13.35121,15.73764 27.28986,34.12441 26.23846,55.91961 -9.86321,31.75624 -37.01623,54.97301 -65.26406,70.51329 -37.46349,19.0892 -79.24944,26.66199 -119.28972,38.37575 -17.31652,5.60265 -35.4942,7.64303 -53.50165,9.5864 -20.39063,1.10381 -40.89142,5.31835 -61.2687,1.70255 13.05749,-9.50948 28.86532,-13.74075 43.21787,-20.78505 41.21185,-17.82818 80.00045,-40.68705 120.15422,-60.71951 17.00945,-8.25179 33.66842,-18.76808 43.39478,-35.56939 -0.52071,-3.69274 -1.02805,-7.37544 -1.51871,-11.04812 -11.43197,-11.59667 -25.5442,-19.88527 -40.09034,-26.90951 -16.97273,14.05851 -36.53893,24.75207 -52.1732,40.44622 -42.90412,32.00376 -90.33095,57.09366 -136.02213,84.77918 -61.50903,34.64287 -119.70028,75.02887 -182.377538,107.62801 -3.651556,1.3112 -7.393233,2.33138 -11.221692,3.06391 24.0689,-26.28067 52.09643,-48.64785 75.79482,-75.28977 34.19913,-35.89719 68.39826,-71.81445 104.07936,-106.24659 37.6838,-36.36212 74.3095,-73.7946 109.23294,-112.83263 -14.72973,-13.64709 -33.74853,-26.22047 -38.22452,-47.14935 -4.2557,-15.82794 -1.75235,-34.5258 9.78978,-46.74797 z"
       inkscape:connector-curvature="0" /><path
       style="fill:#3f51b5;fill-opacity:1;stroke:none"
       id="path18"
       d="m 337.77101,465.54987 c 14.20902,-12.05826 35.19379,-10.88756 51.71924,-4.85675 16.60223,7.07441 34.09233,12.53994 49.24929,22.60132 23.53484,15.11214 46.02495,32.05727 66.14523,51.52443 22.73377,18.41689 43.84537,38.96111 61.93627,62.01397 13.35121,15.73764 27.28986,34.12441 26.23846,55.91961 -9.86321,31.75624 -37.01623,54.97301 -65.26406,70.51329 -37.46349,19.0892 -79.24944,26.66199 -119.28972,38.37575 -17.31652,5.60265 -35.4942,7.64303 -53.50165,9.5864 -20.39063,1.10381 -40.89142,5.31835 -61.2687,1.70255 13.05749,-9.50948 28.86532,-13.74075 43.21787,-20.78505 41.21185,-17.82818 80.00045,-40.68705 120.15422,-60.71951 17.00945,-8.25179 33.66842,-18.76808 43.39478,-35.56939 -0.52071,-3.69274 -1.02805,-7.37544 -1.51871,-11.04812 -11.43197,-11.59667 -25.5442,-19.88527 -40.09034,-26.90951 -16.97273,14.05851 -36.53893,24.75207 -52.1732,40.44622 -42.90412,32.00376 -90.33095,57.09366 -136.02213,84.77918 -61.50903,34.64287 -119.70028,75.02887 -182.377538,107.62801 -3.651556,1.3112 -7.393233,2.33138 -11.221692,3.06391 24.0689,-26.28067 52.09643,-48.64785 75.79482,-75.28977 34.19913,-35.89719 68.39826,-71.81445 104.07936,-106.24659 37.6838,-36.36212 74.3095,-73.7946 109.23294,-112.83263 -14.72973,-13.64709 -33.74853,-26.22047 -38.22452,-47.14935 -4.2557,-15.82794 -1.75235,-34.5258 9.78978,-46.74797 z"
       inkscape:connector-curvature="0" /></g></svg>