<?xml version="1.0" encoding="UTF-8" standalone="no"?>
<svg
   xmlns:dc="http://purl.org/dc/elements/1.1/"
   xmlns:cc="http://creativecommons.org/ns#"
   xmlns:rdf="http://www.w3.org/1999/02/22-rdf-syntax-ns#"
   xmlns:svg="http://www.w3.org/2000/svg"
   xmlns="http://www.w3.org/2000/svg"
   xmlns:sodipodi="http://sodipodi.sourceforge.net/DTD/sodipodi-0.dtd"
   xmlns:inkscape="http://www.inkscape.org/namespaces/inkscape"
   enable-background="new 0 0 300 300"
   viewBox="0 0 51.000001 51"
   xml:space="preserve"
   id="svg2"
   version="1.1"
   inkscape:version="0.48.5 r10040"
   width="100%"
   height="100%"
   sodipodi:docname="running.svg"><metadata
     id="metadata24"><rdf:RDF><cc:Work
         rdf:about=""><dc:format>image/svg+xml</dc:format><dc:type
           rdf:resource="http://purl.org/dc/dcmitype/StillImage" /></cc:Work></rdf:RDF></metadata><defs
     id="defs22" /><sodipodi:namedview
     pagecolor="#ffffff"
     bordercolor="#666666"
     borderopacity="1"
     objecttolerance="10"
     gridtolerance="10"
     guidetolerance="10"
     inkscape:pageopacity="0"
     inkscape:pageshadow="2"
     inkscape:window-width="1326"
     inkscape:window-height="715"
     id="namedview20"
     showgrid="false"
     inkscape:zoom="1.5733333"
     inkscape:cx="130.30121"
     inkscape:cy="149.95161"
     inkscape:window-x="40"
     inkscape:window-y="31"
     inkscape:window-maximized="1"
     inkscape:current-layer="svg2"
     fit-margin-top="3"
     fit-margin-left="3"
     fit-margin-right="3"
     fit-margin-bottom="3" /><g
     id="g3106"
     transform="matrix(0.14968288,0,0,0.15,3,3)"><rect
       ry="30.566406"
       y="-1.5829094e-07"
       x="0"
       height="300"
       width="300.63559"
       id="rect3769"
       style="fill:#000000;fill-opacity:1;stroke:none" /><path
       style="fill:#ffffff;fill-opacity:1;stroke:none"
       id="path4"
       stroke-miterlimit="10"
       d="m 108.422,50.727 c 10.115,-4.038 21.298,-1.269 30.866,2.97 10.676,5.017 21.583,12.316 25.963,23.775 1.965,4.676 0.675,10.132 -2.701,13.797 -2.656,2.269 -6.434,1.636 -9.617,1.315 -7.225,-1.551 -11.649,-7.978 -17.263,-12.188 -4.867,-4.284 -10.048,-8.922 -16.636,-10.107 -5.877,-0.971 -10.982,2.918 -14.749,6.952 -5.669,6.993 -9.25,15.397 -12.042,23.882 -1.814,7.4 -5.674,14.461 -5.209,22.271 -0.552,-7.204 -2.607,-14.216 -2.804,-21.455 -0.368,-9.334 0.816,-18.72 3.16,-27.745 4.299,-9.672 10.943,-19.245 21.032,-23.467 z"
       inkscape:connector-curvature="0" /><path
       style="fill:#ffffff;fill-opacity:1;stroke:none"
       id="path6"
       d="m 108.422,50.727 c 10.115,-4.038 21.298,-1.269 30.866,2.97 10.676,5.017 21.583,12.316 25.963,23.775 1.965,4.676 0.675,10.132 -2.701,13.797 -2.656,2.269 -6.434,1.636 -9.617,1.315 -7.225,-1.551 -11.649,-7.978 -17.263,-12.188 -4.867,-4.284 -10.048,-8.922 -16.636,-10.107 -5.877,-0.971 -10.982,2.918 -14.749,6.952 -5.669,6.993 -9.25,15.397 -12.042,23.882 -1.814,7.4 -5.674,14.461 -5.209,22.271 -0.552,-7.204 -2.607,-14.216 -2.804,-21.455 -0.368,-9.334 0.816,-18.72 3.16,-27.745 4.299,-9.672 10.943,-19.245 21.032,-23.467 z"
       inkscape:connector-curvature="0" /><path
       style="fill:#ffffff;fill-opacity:1;stroke:none"
       id="path8"
       stroke-miterlimit="10"
       d="m 200.646,56.913 c 7.324,-0.85 15.021,2.023 19.936,7.537 3.334,4.104 5.573,9.274 5.537,14.615 -0.646,6.494 -3.914,12.911 -9.367,16.643 -6.428,4.556 -15.215,5.505 -22.448,2.347 C 183.558,93.972 177.3,80.139 182.823,69.69 c 3.108,-7.108 10.273,-11.733 17.823,-12.777 z"
       inkscape:connector-curvature="0" /><path
       style="fill:#ffffff;fill-opacity:1;stroke:none"
       id="path10"
       d="m 200.646,56.913 c 7.324,-0.85 15.021,2.023 19.936,7.537 3.334,4.104 5.573,9.274 5.537,14.615 -0.646,6.494 -3.914,12.911 -9.367,16.643 -6.428,4.556 -15.215,5.505 -22.448,2.347 C 183.558,93.972 177.3,80.139 182.823,69.69 c 3.108,-7.108 10.273,-11.733 17.823,-12.777 z"
       inkscape:connector-curvature="0" /><path
       style="fill:#ffffff;fill-opacity:1;stroke:none"
       id="path12"
       stroke-miterlimit="10"
       d="m 276.883,94.662 c 0.433,-0.024 0.871,-0.035 1.313,-0.027 -0.184,3.852 0.82,7.701 0.184,11.538 -1.017,6.596 -3.673,12.791 -6.55,18.764 -6.32,14.098 -18.271,25.74 -32.761,31.219 -6.652,2.346 -14.544,2.166 -20.538,-1.839 -9.694,-6.329 -17.318,-15.983 -20.652,-27.126 -2.111,-6.018 -2.184,-13.245 1.445,-18.699 1.815,-2.39 4.266,-5.059 7.545,-4.88 3.388,0.313 6.416,2.348 8.462,5 4.817,6.323 5.825,14.547 9.796,21.298 3.322,4.354 8.694,9.526 14.633,6.979 7.157,-3.026 13.18,-8.173 19,-13.22 7.358,-6.328 12.479,-14.775 16.567,-23.473 0.821,-1.745 1.394,-3.605 1.556,-5.534 z"
       inkscape:connector-curvature="0" /><path
       style="fill:#ffffff;fill-opacity:1;stroke:none"
       id="path14"
       d="m 276.883,94.662 c 0.433,-0.024 0.871,-0.035 1.313,-0.027 -0.184,3.852 0.82,7.701 0.184,11.538 -1.017,6.596 -3.673,12.791 -6.55,18.764 -6.32,14.098 -18.271,25.74 -32.761,31.219 -6.652,2.346 -14.544,2.166 -20.538,-1.839 -9.694,-6.329 -17.318,-15.983 -20.652,-27.126 -2.111,-6.018 -2.184,-13.245 1.445,-18.699 1.815,-2.39 4.266,-5.059 7.545,-4.88 3.388,0.313 6.416,2.348 8.462,5 4.817,6.323 5.825,14.547 9.796,21.298 3.322,4.354 8.694,9.526 14.633,6.979 7.157,-3.026 13.18,-8.173 19,-13.22 7.358,-6.328 12.479,-14.775 16.567,-23.473 0.821,-1.745 1.394,-3.605 1.556,-5.534 z"
       inkscape:connector-curvature="0" /><path
       style="fill:#ffffff;fill-opacity:1;stroke:none"
       id="path16"
       stroke-miterlimit="10"
       d="m 98.081,135.092 c 4.257,-3.605 10.544,-3.255 15.495,-1.452 4.974,2.115 10.214,3.749 14.755,6.757 7.051,4.518 13.789,9.584 19.817,15.404 6.811,5.506 13.136,11.648 18.556,18.54 4,4.705 8.176,10.202 7.861,16.718 -2.955,9.494 -11.09,16.435 -19.553,21.081 -11.224,5.707 -23.743,7.971 -35.739,11.473 -5.188,1.675 -10.634,2.285 -16.029,2.866 -6.109,0.33 -12.251,1.59 -18.356,0.509 3.912,-2.843 8.648,-4.108 12.948,-6.214 12.347,-5.33 23.968,-12.164 35.998,-18.153 5.096,-2.467 10.087,-5.611 13.001,-10.634 -0.156,-1.104 -0.308,-2.205 -0.455,-3.303 -3.425,-3.467 -7.653,-5.945 -12.011,-8.045 -5.085,4.203 -10.947,7.4 -15.631,12.092 -12.854,9.568 -27.063,17.069 -40.752,25.346 -18.428,10.357 -35.862,22.431 -54.64,32.177 -1.094,0.392 -2.215,0.697 -3.362,0.916 7.211,-7.857 15.608,-14.544 22.708,-22.509 10.246,-10.732 20.492,-21.47 31.182,-31.764 11.29,-10.871 22.263,-22.062 32.726,-33.733 -4.413,-4.08 -10.111,-7.839 -11.452,-14.096 -1.275,-4.732 -0.525,-10.322 2.933,-13.976 z"
       inkscape:connector-curvature="0" /><path
       style="fill:#ffffff;fill-opacity:1;stroke:none"
       id="path18"
       d="m 98.081,135.092 c 4.257,-3.605 10.544,-3.255 15.495,-1.452 4.974,2.115 10.214,3.749 14.755,6.757 7.051,4.518 13.789,9.584 19.817,15.404 6.811,5.506 13.136,11.648 18.556,18.54 4,4.705 8.176,10.202 7.861,16.718 -2.955,9.494 -11.09,16.435 -19.553,21.081 -11.224,5.707 -23.743,7.971 -35.739,11.473 -5.188,1.675 -10.634,2.285 -16.029,2.866 -6.109,0.33 -12.251,1.59 -18.356,0.509 3.912,-2.843 8.648,-4.108 12.948,-6.214 12.347,-5.33 23.968,-12.164 35.998,-18.153 5.096,-2.467 10.087,-5.611 13.001,-10.634 -0.156,-1.104 -0.308,-2.205 -0.455,-3.303 -3.425,-3.467 -7.653,-5.945 -12.011,-8.045 -5.085,4.203 -10.947,7.4 -15.631,12.092 -12.854,9.568 -27.063,17.069 -40.752,25.346 -18.428,10.357 -35.862,22.431 -54.64,32.177 -1.094,0.392 -2.215,0.697 -3.362,0.916 7.211,-7.857 15.608,-14.544 22.708,-22.509 10.246,-10.732 20.492,-21.47 31.182,-31.764 11.29,-10.871 22.263,-22.062 32.726,-33.733 -4.413,-4.08 -10.111,-7.839 -11.452,-14.096 -1.275,-4.732 -0.525,-10.322 2.933,-13.976 z"
       inkscape:connector-curvature="0" /></g></svg>