<?xml version="1.0" encoding="UTF-8" standalone="no"?>
<svg
   xmlns:dc="http://purl.org/dc/elements/1.1/"
   xmlns:cc="http://creativecommons.org/ns#"
   xmlns:rdf="http://www.w3.org/1999/02/22-rdf-syntax-ns#"
   xmlns:svg="http://www.w3.org/2000/svg"
   xmlns="http://www.w3.org/2000/svg"
   xmlns:sodipodi="http://sodipodi.sourceforge.net/DTD/sodipodi-0.dtd"
   xmlns:inkscape="http://www.inkscape.org/namespaces/inkscape"
   enable-background="new 0 0 300 300"
   viewBox="-52275.001 0 0 51"
   xml:space="preserve"
   id="svg2"
   version="1.1"
   inkscape:version="0.91 r13725"
   width="1025"
   height="1025"
   sodipodi:docname="trekking.svg"><metadata
     id="metadata24"><rdf:RDF><cc:Work
         rdf:about=""><dc:format>image/svg+xml</dc:format><dc:type
           rdf:resource="http://purl.org/dc/dcmitype/StillImage" /><dc:title /></cc:Work></rdf:RDF></metadata><defs
     id="defs22" /><sodipodi:namedview
     pagecolor="#ffffff"
     bordercolor="#666666"
     borderopacity="1"
     objecttolerance="10"
     gridtolerance="10"
     guidetolerance="10"
     inkscape:pageopacity="0"
     inkscape:pageshadow="2"
     inkscape:window-width="1366"
     inkscape:window-height="670"
     id="namedview20"
     showgrid="false"
     inkscape:zoom="0.39333331"
     inkscape:cx="467.7209"
     inkscape:cy="478.11784"
     inkscape:window-x="0"
     inkscape:window-y="28"
     inkscape:window-maximized="1"
     inkscape:current-layer="svg2"
     fit-margin-top="3"
     fit-margin-left="3"
     fit-margin-right="3"
     fit-margin-bottom="3" /><g
     id="g6427"
     transform="matrix(0.98894096,0,0,0.98894096,5.0172414,6.346394)"><rect
       ry="102.24078"
       y="13.684137"
       x="10.395983"
       height="1003.4623"
       width="1003.4623"
       id="rect3769"
       style="fill:none;fill-opacity:1;stroke:#ff4081;stroke-width:33;stroke-miterlimit:4;stroke-dasharray:none;stroke-opacity:1" /><path
       inkscape:connector-curvature="0"
       d="m 329.97108,958.76702 c 27.2578,-5.71585 52.74214,-10.46295 56.63187,-10.54915 3.88971,-0.0861 10.51436,-1.598 14.72145,-3.35955 8.82091,-3.69344 15.1252,-1.52155 24.37075,8.39599 6.64104,7.12368 14.84437,7.25798 40.32676,0.66012 13.95211,-3.61245 21.55023,-4.51617 28.22128,-3.35657 15.17504,2.63783 31.86501,3.37661 36.60295,1.6202 2.58546,-0.95847 5.59926,-5.1375 7.14339,-9.90528 1.46908,-4.53601 6.99447,-16.9197 12.27867,-27.51931 16.40381,-32.90452 26.27292,-45.98652 18.9051,-25.05965 -1.79034,5.08509 -3.25154,15.19659 -3.2471,22.46998 0.0112,18.98735 4.18489,24.63994 23.96771,32.46301 8.7381,3.45547 21.55241,10.11157 28.47626,14.79132 14.72755,9.95419 16.03447,9.90753 42.35776,-1.51205 33.10643,-14.36226 43.92385,-18.00506 64.64302,-21.76867 11.25866,-2.0451 22.16716,-4.60574 24.24115,-5.6903 5.45037,-2.85021 4.72484,-10.03014 -3.76875,-37.29582 -5.54179,-17.78989 -9.52837,-26.53156 -15.04514,-32.99032 -7.18643,-8.4135 -12.99869,-19.67678 -11.1236,-21.55583 0.48871,-0.48973 1.86449,1.83136 3.05736,5.15796 1.19287,3.32661 8.11479,12.85029 15.38208,21.16373 12.60104,14.41491 21.2354,29.57981 30.6201,53.7794 9.98171,25.73895 13.17646,30.38453 21.37162,31.07716 7.37104,0.62296 43.18893,-10.47986 48.92918,-15.16705 3.90535,-3.18889 3.35542,-11.10747 -2.6107,-37.59301 -7.56678,-33.59146 -13.52707,-51.7445 -19.01416,-57.91082 -6.63089,-7.45171 -57.90136,-44.36399 -61.62078,-44.36399 -3.22711,0 -17.72363,10.96399 -30.70918,23.22597 -9.35209,8.83094 -12.34719,6.43771 -5.17695,-4.13661 5.95723,-8.78542 27.01545,-54.8275 27.01545,-59.06706 0,-3.0996 -26.02151,-25.88688 -33.80122,-29.60005 -3.69323,-1.76273 -7.6803,-1.05803 -18.44304,3.25971 -13.46163,5.40049 -13.9719,5.44147 -25.99359,2.08832 -6.74431,-1.88116 -12.26239,-4.57557 -12.26239,-5.9876 0,-1.41203 2.83982,-14.12714 6.31069,-28.2558 3.47089,-14.12865 10.81253,-46.09422 16.31473,-71.03451 5.5022,-24.9403 13.40294,-58.46394 17.55722,-74.49698 4.15427,-16.03304 11.86704,-46.04597 17.13949,-66.69532 5.27246,-20.64937 10.04657,-38.29075 10.60919,-39.20299 1.07528,-1.74357 18.29283,-59.19305 22.46287,-74.95158 1.44767,-5.47068 4.5295,-10.56149 7.62348,-12.59304 7.55939,-4.96359 10.52123,-16.21289 8.89251,-33.77446 -1.22407,-13.19816 -0.54308,-17.60139 5.87548,-37.99095 12.89816,-40.97304 13.6001,-44.91468 8.92129,-50.09568 -2.77575,-3.07364 -6.12258,-4.28377 -10.62632,-3.84217 -7.24537,0.71039 -8.91318,4.42429 -21.62314,48.14993 -7.94139,18.98554 -7.4414,25.12759 -24.27056,25.22873 -4.40932,0.50887 -7.05475,2.88779 -10.36478,9.32059 -5.9052,11.47631 -12.85874,12.48966 -21.21473,3.09165 -5.61537,-6.31567 -6.89731,-6.75667 -17.14483,-5.89778 -18.5675,3.354 -27.42727,12.48087 -45.97609,-5.482 -3.59915,-2.66661 -11.32775,-7.79805 -13.88269,-12.81706 -2.55493,-5.01901 -10.67644,-15.44152 -18.04782,-23.16112 -22.8061,-23.8834 -19.07995,-26.9807 0.14956,-26.9807 24.05656,-2.4459 18.50397,-12.24038 21.9705,-23.6453 1.34287,-4.41808 11.69797,-4.16442 11.13624,-6.96748 -1.10587,-15.07263 1.95839,-24.37326 9.03124,-29.30833 4.03457,-11.86899 0.33297,-14.6695 10.19151,-17.92743 8.95832,-5.13879 -10.62186,-25.33727 -25.93654,-29.93763 -15.06522,-4.5254 -17.28189,-11.98172 -17.28189,-13.13465 0,-1.15293 -2.44515,-5.41748 -5.43363,-9.47676 -2.98848,-4.05928 1.46998,-17.868955 0.26401,-22.357008 -1.20596,-4.488053 -4.33625,-9.53735 -6.95625,-11.220593 -5.95967,-3.828839 -22.0363,-10.956773 -63.65149,-22.918013 l -32.0736,-9.21873 -15.33129,3.695284 c -34.34254,8.277514 -30.68019,5.736077 -36.98552,25.665722 -6.25005,19.754996 -9.48223,54.144408 -5.7464,61.139698 2.05631,3.85037 1.58021,4.12629 -5.88864,3.4125 -5.24899,-0.50164 -11.20843,0.79941 -16.83286,3.67484 -7.82193,3.99891 -9.40275,6.26893 -15.55127,22.33117 -14.73558,38.49486 -65.78841,191.03162 -67.77603,202.5027 -1.0681,6.16428 0.2141,10.34447 6.95449,22.67301 7.71059,14.10302 9.09531,15.44881 20.67653,20.09493 6.82688,2.73879 17.13805,5.54046 22.91371,6.22596 l 10.50119,1.24635 -5.00501,6.73004 c -2.75274,3.70152 -7.30936,13.53193 -10.12575,21.84537 -4.36099,12.87273 -5.15574,19.60052 -5.35664,45.34599 11.69315,30.27504 8.91245,59.60169 7.71757,93.2788 l -1.84723,27.86852 c -2.31697,21.84158 -7.48728,37.87153 -20.10359,73.19261 -5.91258,13.59823 -8.05305,22.32978 -10.05755,41.02733 -1.40051,13.06397 -4.19394,31.89088 -6.20763,41.83761 -2.21609,13.59279 -5.31681,19.8859 -9.20417,23.68274 -3.68143,3.47627 -23.73086,32.74908 -23.47595,41.5522 0.27166,9.38236 0.71093,9.20997 11.83681,19.97382 8.1806,7.91445 19.13621,14.38992 20.81862,14.38992 1.68242,0 5.45574,3.66862 8.38522,8.15251 l 5.32629,8.15249 -9.29436,4.83756 c -8.62455,4.48891 -9.74957,4.60165 -15.61039,1.5645 -4.60643,-2.38712 -13.26372,-3.27307 -31.98386,-3.27307 -23.59974,0 -26.9309,-0.52194 -41.34395,-6.47799 -20.09909,-8.30574 -24.31652,-8.23213 -30.9244,0.53985 -13.23146,17.56483 -20.50873,34.6512 -22.03578,51.7381 -1.44256,16.14162 -1.33136,16.7153 3.64976,18.82556 13.91443,5.89491 52.17326,15.24276 61.48318,15.0223 5.74876,-0.13609 32.75413,-4.92409 60.01194,-10.63994 z m 120.86322,-76.5889 c -5.81767,-1.76859 -13.31941,-3.21563 -16.67052,-3.21563 -4.83709,0 -6.69629,-1.44648 -9.02023,-7.01783 -4.00144,-9.59303 -8.415,-12.76095 -19.52725,-14.01613 l -9.46578,-1.06916 -3.70759,-15.40028 c -2.03917,-8.47014 -4.51063,-16.9321 -5.49211,-18.80436 -2.87945,-5.49268 16.08994,-73.22228 25.95058,-92.65578 2.11763,-4.17345 7.83324,-18.19393 12.70138,-31.15662 4.87911,-12.99202 12.20152,-27.87801 16.31706,-33.17172 8.16945,-10.50807 9.84391,-14.92043 15.171,-39.97721 6.00535,-18.57303 14.86984,-34.72813 21.39312,-53.29725 7.59786,-24.54069 20.96132,-30.08093 23.14943,-29.9857 34.18209,2.30825 54.46994,9.75515 62.64745,12.85726 2.6782,1.39655 5.15128,2.77095 5.49572,3.0542 0.34446,0.28326 -1.29799,3.79553 -3.64981,7.80503 -6.95788,11.86207 -27.86568,64.14196 -30.61921,69.12338 l -8.56018,10.17053 -8.34189,10.25272 c -13.44106,21.23931 -13.88265,32.24391 -1.82007,45.358 9.8717,10.73222 18.17054,15.90466 25.86199,16.11912 3.19435,0.0891 8.8755,4.50121 15.98721,12.41615 l 11.03197,12.27802 -7.79982,11.75605 c -7.4257,11.19215 -8.62671,12.02077 -25.03797,17.27466 -9.48097,3.03525 -18.45021,6.30475 -19.93159,7.26556 -1.91395,1.24135 -2.69347,9.42266 -2.69347,28.26927 l 0,26.52235 -13.09936,3.97454 c -13.01661,3.94948 -13.14777,4.07094 -20.76312,19.22502 -6.09128,12.12126 -17.10101,29.41248 -18.64639,29.28482 -0.15562,-0.0125 -5.04287,-1.47042 -10.86055,-3.23901 z m 175.08682,-166.6163 c -1.13978,-1.39169 -5.80874,-3.16297 -10.37546,-3.93613 -10.58753,-1.79255 -12.64886,-4.39594 -22.55358,-28.48452 l -8.15601,-19.83569 5.42689,-9.31529 c 2.98477,-5.12341 9.29515,-16.11721 14.02309,-24.43064 4.72793,-8.31344 14.65507,-24.34648 22.06035,-35.62897 23.39478,-35.64371 34.3885,-58.17218 34.3342,-70.35794 -0.0526,-11.78437 -6.50181,-28.31092 -11.85065,-30.36783 -46.49012,-19.76419 -64.33273,-32.67359 -101.58869,-47.51719 -8.09712,-2.06866 -15.5412,-4.43927 -16.54247,-5.26804 -1.00127,-0.82878 3.05285,-8.67314 9.00909,-17.43191 7.28272,-10.70934 9.99362,-21.29641 14.37261,-30.05986 4.51512,-9.0359 4.83064,-9.28236 9.95474,-12.41384 3.64887,-2.22992 7.27638,-2.10144 11.32608,-3.44078 5.77267,-1.9092 12.25021,-0.64004 23.07599,1.91718 7.5946,1.79396 19.48668,3.27611 26.42688,3.29366 10.86807,0.0275 13.80288,0.97195 21.1564,6.80838 8.05296,6.39158 9.29589,6.70551 21.88431,5.52751 18.37375,-1.71941 20.31578,-2.7834 26.15399,-14.32895 3.83514,-7.58433 7.34084,-11.12738 13.9775,-14.12644 15.94702,-7.20634 15.95307,-7.27789 -6.48305,76.61274 -2.06458,7.71961 -7.73151,29.58286 -12.59321,48.58498 -4.8617,19.00212 -10.77455,39.40783 -13.13966,45.34599 -8.77637,22.03515 -31.96352,114.45657 -41.36337,164.87004 -2.73531,14.67002 -5.30862,24.38701 -5.71846,21.59334 -0.40984,-2.79367 -1.67771,-6.21808 -2.81751,-7.6098 z"
       id="path6-7"
       style="fill:#3f51b5;fill-opacity:1" /></g></svg>